<svg id="svg" version="1.1" xmlns="http://www.w3.org/2000/svg" xmlns:xlink="http://www.w3.org/1999/xlink" width="400" height="376.9357495881384" viewBox="0, 0, 400,376.9357495881384"><g id="svgg"><path id="path0" d="M316.305 18.731 C 305.921 22.369,298.795 30.274,292.064 45.617 C 291.561 46.765,290.836 48.911,290.439 50.424 C 290.284 51.016,289.538 51.017,276.814 50.447 C 270.038 50.143,266.541 49.849,266.541 49.582 C 266.541 48.157,270.571 41.281,273.281 38.084 C 274.388 36.777,274.397 36.774,275.195 37.497 C 276.339 38.532,279.419 38.499,280.577 37.439 C 281.048 37.008,281.857 36.541,282.375 36.400 C 285.045 35.676,286.145 34.316,286.145 31.738 C 286.145 22.991,280.495 20.039,273.704 25.239 C 272.864 25.882,271.451 26.429,269.816 26.742 C 261.749 28.291,255.230 36.418,253.196 47.465 L 252.738 49.953 248.047 50.199 C 241.588 50.538,232.080 51.208,227.333 51.658 C 221.777 52.186,201.178 52.754,186.428 52.786 C 179.585 52.801,172.728 52.959,171.189 53.137 C 167.932 53.514,167.389 53.384,167.389 52.223 C 167.389 48.884,175.970 30.914,177.565 30.914 C 177.781 30.914,178.234 31.495,178.573 32.204 C 180.362 35.957,186.075 35.194,186.823 31.103 C 187.864 25.401,183.571 19.881,178.535 20.449 C 174.291 20.927,165.190 28.072,161.520 33.808 C 157.918 39.437,154.194 49.131,154.194 52.878 C 154.194 54.215,153.917 54.266,145.118 54.540 C 136.268 54.815,136.334 54.836,137.174 52.093 C 137.408 51.330,138.036 49.265,138.571 47.502 C 139.105 45.740,139.684 43.959,139.857 43.544 C 140.030 43.129,140.547 41.813,141.007 40.620 C 143.389 34.434,146.052 31.845,148.620 33.220 C 152.299 35.189,156.302 32.059,155.376 27.939 C 154.319 23.234,149.239 21.189,144.141 23.416 C 143.138 23.854,141.131 24.512,139.680 24.878 C 132.604 26.665,129.260 30.516,124.617 42.224 C 124.246 43.157,123.799 44.260,123.622 44.675 C 122.876 46.422,120.646 53.398,120.644 53.992 C 120.640 54.846,119.504 55.419,117.817 55.419 C 117.065 55.419,115.739 55.577,114.870 55.769 C 114.001 55.961,111.847 56.404,110.085 56.752 C 108.322 57.101,105.947 57.637,104.807 57.943 C 103.666 58.250,102.224 58.633,101.602 58.795 C 98.999 59.471,93.291 61.578,87.465 64.014 C 81.260 66.608,76.230 68.116,70.877 68.987 C 62.954 70.276,56.938 71.946,51.838 74.273 C 50.594 74.840,47.795 76.018,45.617 76.889 C 43.440 77.761,41.235 78.653,40.716 78.873 C 40.198 79.092,39.434 79.402,39.020 79.561 C 30.924 82.665,28.140 86.046,30.633 89.745 C 33.774 94.406,41.172 93.870,42.187 88.906 C 42.418 87.777,42.726 87.605,49.576 84.786 C 53.507 83.168,57.066 81.683,57.485 81.485 C 60.153 80.226,65.597 78.744,70.123 78.043 C 72.997 77.598,73.779 77.444,78.794 76.336 C 82.870 75.436,85.644 74.467,90.774 72.152 C 91.868 71.658,92.845 71.254,92.946 71.254 C 93.046 71.254,93.847 70.922,94.726 70.516 C 99.508 68.308,112.313 64.828,117.248 64.395 L 118.567 64.279 118.818 72.008 C 119.128 81.589,119.409 83.159,121.067 84.543 C 123.063 86.209,125.474 85.853,127.496 83.593 C 127.844 83.204,128.438 82.917,128.815 82.956 C 131.745 83.261,133.829 81.716,133.845 79.225 C 133.850 78.469,134.216 76.579,134.658 75.024 C 135.765 71.135,135.948 68.501,135.189 67.417 C 134.576 66.541,134.411 64.995,134.819 63.933 C 135.019 63.411,136.218 63.336,144.381 63.336 L 153.714 63.336 153.971 67.012 C 154.113 69.034,154.425 71.667,154.666 72.863 C 155.044 74.750,155.017 75.182,154.460 76.126 C 153.592 77.594,153.648 79.855,154.585 81.244 C 155.005 81.866,155.604 82.884,155.916 83.506 C 158.223 88.110,163.989 88.404,164.961 83.967 C 165.122 83.234,165.898 82.127,166.921 81.174 L 168.614 79.596 168.416 77.404 C 168.308 76.198,168.024 73.770,167.787 72.008 C 167.005 66.201,167.350 62.509,168.709 62.132 C 169.331 61.960,180.782 61.649,194.156 61.441 C 218.029 61.070,224.314 60.825,234.496 59.863 C 237.295 59.598,242.469 59.381,245.994 59.380 L 252.403 59.378 252.677 65.598 C 252.828 69.020,252.968 73.007,252.989 74.458 C 253.067 79.948,254.388 85.197,255.976 86.327 C 258.241 87.940,260.408 87.304,263.432 84.139 L 265.413 82.065 265.161 70.577 L 264.909 59.088 276.255 59.259 C 288.586 59.445,289.066 59.529,288.588 61.423 C 288.453 61.957,288.207 63.497,288.040 64.844 C 287.118 72.307,286.421 76.133,285.714 77.603 C 284.792 79.520,284.912 80.920,286.224 83.550 C 287.651 86.412,288.928 87.036,292.517 86.626 C 293.254 86.541,293.613 86.865,294.446 88.368 C 296.186 91.504,298.150 92.336,300.753 91.037 C 303.879 89.478,303.849 87.388,300.606 80.801 C 297.169 73.818,296.314 68.788,297.575 62.959 C 298.242 59.877,298.288 59.841,301.174 60.104 C 302.550 60.229,307.602 60.500,312.401 60.706 C 320.563 61.057,325.285 61.557,330.254 62.599 C 331.395 62.838,333.007 63.176,333.836 63.349 C 334.665 63.523,336.277 63.919,337.418 64.229 C 338.558 64.539,340.848 65.155,342.507 65.598 C 361.319 70.614,370.698 77.043,376.012 88.562 C 377.586 91.973,377.367 135.018,375.630 163.619 C 374.601 180.582,375.218 197.196,377.745 220.547 C 378.984 231.999,379.246 252.939,378.214 258.058 C 378.005 259.095,377.632 261.131,377.385 262.582 C 376.485 267.873,372.638 279.496,367.465 292.554 C 363.073 303.643,361.702 307.374,359.294 314.797 C 357.780 319.463,356.412 323.619,356.254 324.034 C 355.989 324.728,355.333 327.029,354.321 330.820 C 354.099 331.649,353.780 332.752,353.611 333.270 C 353.441 333.789,353.026 335.401,352.688 336.852 C 350.544 346.045,350.282 346.399,343.590 349.172 C 335.433 352.552,329.304 353.574,310.085 354.757 C 306.767 354.961,301.169 355.384,297.644 355.697 C 280.750 357.196,257.900 357.805,235.438 357.356 C 217.443 356.997,212.577 356.643,199.434 354.742 C 193.242 353.846,191.921 353.657,187.747 353.073 C 167.990 350.305,153.380 349.051,128.558 347.993 C 119.906 347.624,109.908 347.034,105.372 346.625 C 104.128 346.513,101.074 346.269,98.586 346.084 C 96.098 345.898,90.754 345.479,86.711 345.152 C 82.667 344.825,76.560 344.393,73.139 344.192 C 41.853 342.353,39.080 342.007,33.467 339.234 C 28.649 336.854,25.830 333.469,23.945 327.804 C 23.022 325.032,21.672 317.857,20.752 310.839 C 20.507 308.973,20.153 306.428,19.965 305.184 C 19.777 303.940,19.362 300.716,19.042 298.021 C 18.723 295.325,18.301 292.017,18.105 290.669 C 17.008 283.131,16.858 228.032,17.926 224.770 C 18.014 224.501,18.264 218.818,18.482 212.141 C 19.224 189.374,20.329 172.091,22.054 156.268 C 22.371 153.365,22.796 149.378,23.000 147.408 C 23.203 145.438,23.538 142.300,23.743 140.434 C 25.015 128.885,25.312 126.063,25.651 122.337 C 25.986 118.657,26.155 118.014,27.152 116.621 L 28.275 115.051 28.275 102.351 L 28.275 89.651 26.993 88.369 C 23.319 84.695,19.226 87.817,19.228 94.294 C 19.228 95.618,19.061 98.483,18.856 100.660 C 18.652 102.837,18.221 107.672,17.900 111.404 C 17.579 115.137,17.146 119.717,16.939 121.583 C 16.732 123.450,16.402 126.418,16.205 128.181 C 16.008 129.943,15.588 133.930,15.272 137.041 C 14.955 140.151,14.533 144.138,14.333 145.900 C 13.431 153.847,12.562 162.667,11.697 172.667 C 11.107 179.482,10.599 188.223,10.162 199.057 C 9.940 204.552,9.590 213.035,9.384 217.908 C 8.845 230.639,8.316 266.732,8.520 276.909 C 8.693 285.554,8.781 286.662,10.190 297.962 C 11.299 306.846,11.302 306.874,11.695 309.519 C 11.896 310.867,12.324 313.836,12.646 316.117 C 16.115 340.624,23.764 348.951,44.675 350.985 C 50.840 351.584,57.883 352.122,64.656 352.510 C 76.377 353.182,82.831 353.613,89.915 354.199 C 104.223 355.382,106.224 355.535,111.970 355.894 C 115.184 356.094,121.715 356.427,126.484 356.633 C 148.629 357.589,165.203 358.937,181.904 361.140 C 184.271 361.453,187.681 361.933,195.853 363.106 C 197.304 363.314,199.510 363.629,200.754 363.805 C 220.768 366.642,269.250 367.264,292.931 364.988 C 302.990 364.020,305.529 363.814,312.158 363.421 C 320.489 362.928,329.721 362.058,332.328 361.519 C 340.344 359.865,344.630 358.498,350.062 355.862 C 357.574 352.217,358.196 351.186,361.963 336.098 C 362.584 333.610,363.243 331.150,363.427 330.631 C 363.611 330.113,364.465 327.399,365.325 324.599 C 368.025 315.808,373.079 301.728,375.677 295.759 C 376.822 293.129,381.090 281.412,382.750 276.343 C 385.353 268.396,386.107 265.114,387.038 257.691 C 387.728 252.181,387.842 233.304,387.223 227.144 C 386.164 216.623,385.985 214.891,385.662 212.064 C 384.247 199.660,383.810 169.408,384.858 156.456 C 386.113 140.948,385.827 89.664,384.466 85.957 C 382.273 79.989,375.189 71.220,369.234 67.103 C 366.712 65.359,359.042 61.451,358.142 61.451 C 357.935 61.451,357.471 61.289,357.111 61.091 C 356.491 60.750,353.891 59.870,348.351 58.127 C 335.741 54.160,324.451 52.237,311.404 51.834 C 307.568 51.716,303.547 51.530,302.468 51.421 L 300.505 51.222 301.452 48.514 C 303.210 43.486,304.516 40.709,306.537 37.700 C 308.878 34.218,314.397 29.029,315.761 29.029 C 316.021 29.029,316.678 29.787,317.221 30.713 C 319.794 35.104,325.695 33.148,325.223 28.061 C 324.701 22.448,319.934 17.459,316.305 18.731 " stroke="none" fill="#070707" fill-rule="evenodd"></path><path id="path1" d="M0.000 188.501 L 0.000 377.003 200.000 377.003 L 400.000 377.003 400.000 188.501 L 400.000 0.000 200.000 0.000 L 0.000 0.000 0.000 188.501 M321.417 19.615 C 324.995 22.945,326.743 28.519,325.087 31.321 C 323.256 34.421,318.299 34.162,316.790 30.887 C 316.006 29.184,315.726 29.114,314.219 30.248 C 309.916 33.485,305.665 39.016,303.711 43.921 C 303.133 45.372,302.524 46.899,302.358 47.314 C 300.740 51.349,300.091 50.981,309.433 51.320 C 322.634 51.798,327.946 52.456,337.983 54.858 C 339.434 55.206,341.046 55.572,341.565 55.672 C 342.083 55.771,342.846 55.991,343.261 56.159 C 343.676 56.327,344.694 56.647,345.523 56.870 C 349.636 57.974,356.783 60.322,359.472 61.452 C 368.362 65.185,373.672 69.079,378.393 75.327 C 379.598 76.923,380.673 78.313,380.782 78.417 C 381.542 79.144,384.485 84.490,384.998 86.076 C 386.705 91.358,386.896 142.035,385.263 156.268 C 385.049 158.134,384.783 166.107,384.673 173.987 C 384.445 190.292,384.827 199.358,386.364 214.138 C 386.569 216.107,386.928 219.925,387.162 222.620 C 387.395 225.316,387.751 229.218,387.952 231.291 C 388.879 240.856,387.828 260.365,386.042 266.730 C 385.868 267.352,385.551 268.539,385.337 269.369 C 384.764 271.599,383.057 277.172,382.682 278.040 C 382.503 278.454,381.907 280.151,381.358 281.810 C 380.809 283.468,380.217 285.165,380.042 285.580 C 379.868 285.994,378.927 288.454,377.951 291.046 C 376.975 293.638,375.921 296.352,375.609 297.078 C 374.574 299.482,374.413 299.898,374.150 300.848 C 374.006 301.367,373.554 302.554,373.146 303.487 C 372.142 305.782,371.908 306.383,371.170 308.577 C 370.821 309.614,370.389 310.801,370.210 311.216 C 369.683 312.436,365.305 325.846,364.547 328.558 C 364.374 329.180,363.780 331.301,363.229 333.270 C 362.677 335.240,362.086 337.446,361.914 338.172 C 360.078 345.953,358.889 349.311,357.143 351.651 C 355.266 354.164,347.403 358.162,340.622 360.050 C 333.116 362.140,329.706 362.633,316.117 363.592 C 304.870 364.385,297.591 364.946,293.308 365.351 C 285.872 366.053,275.935 366.417,257.304 366.671 C 232.756 367.006,216.562 366.457,205.844 364.928 C 204.496 364.735,201.272 364.314,198.680 363.992 C 196.089 363.671,193.245 363.243,192.360 363.042 C 191.476 362.841,190.236 362.677,189.605 362.677 C 188.975 362.677,187.747 362.520,186.878 362.328 C 186.008 362.136,182.922 361.709,180.019 361.378 C 177.116 361.048,173.798 360.611,172.645 360.408 C 171.492 360.204,169.766 360.038,168.809 360.038 C 167.852 360.038,166.251 359.876,165.250 359.679 C 164.250 359.481,159.529 359.059,154.760 358.742 C 149.991 358.424,144.731 358.072,143.073 357.961 C 141.414 357.849,136.579 357.598,132.328 357.403 C 114.008 356.560,104.640 355.993,97.455 355.292 C 93.217 354.878,87.664 354.465,78.040 353.847 C 44.988 351.725,37.207 350.999,34.972 349.825 C 34.612 349.636,34.121 349.482,33.881 349.482 C 33.640 349.482,32.154 348.863,30.577 348.108 C 21.856 343.928,18.088 339.421,14.708 329.123 C 13.624 325.823,12.431 318.840,10.715 305.749 C 9.286 294.851,8.753 290.315,8.298 285.203 C 7.826 279.895,7.837 251.674,8.317 236.758 C 9.242 208.026,10.574 178.016,11.138 173.233 C 11.260 172.196,11.526 169.482,11.729 167.201 C 11.931 164.920,12.250 161.527,12.437 159.661 C 13.647 147.562,14.028 143.865,14.338 141.188 C 15.155 134.147,15.450 131.440,16.024 125.730 C 16.357 122.413,16.796 118.087,16.999 116.117 C 17.682 109.477,18.014 105.403,18.443 98.398 C 19.098 87.680,21.037 84.652,25.795 86.911 C 28.688 88.283,28.652 88.092,28.652 102.345 C 28.652 115.298,28.605 115.766,27.144 117.436 C 26.651 118.001,26.365 119.472,26.008 123.280 C 25.746 126.079,25.401 129.557,25.241 131.008 C 24.938 133.756,24.560 137.298,23.547 146.843 C 23.217 149.953,22.785 154.025,22.586 155.891 C 20.815 172.554,20.004 184.304,19.255 204.147 C 19.068 209.123,18.713 217.861,18.466 223.563 C 17.808 238.795,17.767 285.381,18.408 289.727 C 18.683 291.593,19.066 294.392,19.260 295.947 C 19.453 297.502,19.772 299.962,19.969 301.414 C 20.166 302.865,20.582 306.004,20.894 308.388 C 22.133 317.860,23.325 324.630,24.181 327.050 C 26.763 334.349,29.534 337.320,36.286 340.028 C 39.745 341.416,49.738 342.446,69.369 343.440 C 73.827 343.665,78.746 344.015,80.302 344.218 C 81.857 344.420,84.199 344.584,85.507 344.583 C 86.815 344.582,89.020 344.742,90.408 344.939 C 91.796 345.136,97.003 345.564,101.979 345.890 C 106.956 346.216,112.639 346.650,114.609 346.855 C 116.579 347.060,119.972 347.222,122.149 347.217 C 124.326 347.211,128.398 347.379,131.197 347.590 C 133.996 347.800,139.849 348.154,144.204 348.375 C 151.852 348.763,156.831 349.121,164.373 349.823 C 172.911 350.618,176.412 350.985,178.888 351.345 C 180.339 351.555,182.205 351.823,183.035 351.939 C 183.864 352.055,185.561 352.293,186.805 352.469 C 188.049 352.644,191.188 353.080,193.779 353.438 C 196.371 353.796,199.425 354.225,200.566 354.391 C 201.706 354.557,203.402 354.797,204.336 354.925 C 205.269 355.053,207.135 355.325,208.483 355.531 C 220.380 357.343,270.189 357.526,290.481 355.832 C 293.176 355.607,296.909 355.293,298.775 355.134 C 300.641 354.975,304.967 354.654,308.388 354.420 C 318.148 353.752,327.611 352.920,329.877 352.530 C 333.391 351.925,338.534 350.672,339.392 350.211 C 339.752 350.017,340.305 349.859,340.622 349.859 C 340.939 349.859,341.492 349.711,341.852 349.530 C 342.212 349.349,344.119 348.417,346.089 347.459 L 349.670 345.716 350.686 342.415 C 351.245 340.599,352.232 337.078,352.878 334.590 C 353.525 332.102,354.198 329.557,354.374 328.935 C 354.550 328.313,354.960 326.832,355.286 325.644 C 355.948 323.224,361.373 306.733,361.892 305.561 C 362.076 305.146,362.607 303.789,363.072 302.545 C 363.537 301.301,364.125 299.774,364.378 299.152 C 364.632 298.530,365.302 296.833,365.868 295.382 C 366.434 293.930,367.050 292.361,367.237 291.894 C 368.125 289.683,368.287 289.263,368.727 288.030 C 368.987 287.304,369.415 286.202,369.680 285.580 C 370.320 284.075,372.553 277.693,373.835 273.704 C 374.401 271.942,374.983 270.160,375.128 269.746 C 378.350 260.499,379.302 240.785,377.421 222.243 C 377.253 220.584,376.915 217.022,376.671 214.326 C 376.427 211.631,376.067 208.068,375.870 206.409 C 374.831 197.637,374.572 170.888,375.412 159.095 C 376.940 137.646,376.837 91.196,375.254 88.045 C 372.352 82.266,366.823 76.083,362.362 73.628 C 361.395 73.096,360.434 72.544,360.226 72.401 C 360.019 72.258,358.238 71.499,356.268 70.714 C 354.298 69.928,352.347 69.150,351.932 68.985 C 351.517 68.819,349.651 68.225,347.785 67.665 C 345.919 67.105,343.968 66.502,343.450 66.324 C 340.890 65.445,334.628 63.899,330.443 63.112 C 322.451 61.610,314.393 60.913,304.812 60.897 L 298.408 60.886 298.052 62.771 C 297.333 66.582,297.824 74.123,298.946 76.509 C 299.347 77.363,299.788 78.234,301.594 81.746 C 304.097 86.612,304.062 89.373,301.477 91.140 C 298.537 93.150,294.771 91.480,293.547 87.624 C 293.328 86.934,293.064 86.869,291.068 87.013 C 286.837 87.319,283.088 81.638,285.073 77.929 C 285.638 76.875,286.106 75.015,286.516 72.196 C 287.669 64.274,288.104 60.646,287.922 60.464 C 287.561 60.103,278.285 59.595,271.777 59.580 L 265.515 59.566 265.286 61.496 C 265.161 62.558,265.218 65.569,265.413 68.188 C 265.609 70.807,265.815 75.028,265.872 77.567 L 265.975 82.185 264.185 83.927 C 263.200 84.885,262.394 85.787,262.394 85.932 C 262.394 86.357,259.532 87.842,258.713 87.842 C 255.894 87.842,254.346 86.079,253.514 81.918 C 253.191 80.303,252.751 78.418,252.537 77.729 C 252.256 76.830,252.270 76.177,252.586 75.414 C 252.909 74.634,252.919 73.963,252.623 72.896 C 252.401 72.096,252.218 68.750,252.217 65.459 L 252.215 59.476 246.277 59.672 C 239.936 59.881,231.291 60.467,225.448 61.083 C 223.478 61.291,210.669 61.641,196.984 61.860 C 183.299 62.079,171.170 62.374,170.031 62.515 L 167.961 62.771 168.084 68.426 C 168.152 71.536,168.363 74.242,168.553 74.439 C 170.090 76.037,167.934 82.564,165.869 82.564 C 165.668 82.564,165.504 83.004,165.504 83.542 C 165.504 86.376,161.535 88.733,158.976 87.419 C 157.964 86.899,156.079 85.170,156.079 84.762 C 156.079 84.598,155.485 83.535,154.760 82.401 C 153.297 80.115,153.005 77.728,153.957 75.853 C 154.345 75.090,154.392 74.316,154.142 72.762 C 153.960 71.621,153.703 69.012,153.572 66.964 L 153.335 63.240 151.070 63.477 C 149.825 63.607,145.858 63.713,142.255 63.713 L 135.705 63.713 135.272 64.663 C 134.912 65.455,134.982 65.897,135.700 67.335 C 136.716 69.368,136.413 72.535,134.921 75.490 C 134.739 75.850,134.581 76.783,134.570 77.563 C 134.517 81.188,132.393 83.674,129.318 83.710 C 128.410 83.720,127.582 84.076,126.687 84.841 C 125.270 86.052,123.198 86.334,121.653 85.525 C 119.135 84.207,118.452 81.262,118.409 71.536 C 118.379 64.949,118.366 64.844,117.568 64.844 C 116.633 64.844,111.363 65.816,109.142 66.397 C 108.313 66.614,106.956 66.967,106.126 67.181 C 105.297 67.396,104.194 67.705,103.676 67.869 C 103.157 68.033,101.800 68.444,100.660 68.783 C 99.519 69.121,98.247 69.543,97.832 69.722 C 97.418 69.900,96.459 70.317,95.702 70.650 C 94.945 70.982,94.224 71.254,94.101 71.254 C 93.978 71.254,92.591 71.847,91.020 72.573 C 89.449 73.299,88.004 73.893,87.809 73.893 C 87.614 73.893,87.160 74.042,86.800 74.226 C 85.075 75.103,81.871 76.172,79.359 76.708 C 78.737 76.841,77.465 77.114,76.532 77.315 C 75.598 77.517,73.393 77.925,71.631 78.222 C 69.868 78.519,67.578 78.952,66.541 79.183 C 65.504 79.415,64.103 79.695,63.427 79.806 C 62.751 79.917,62.105 80.159,61.991 80.343 C 61.877 80.528,61.476 80.679,61.100 80.679 C 60.423 80.679,58.967 81.258,54.356 83.362 C 53.046 83.959,51.765 84.449,51.510 84.449 C 51.255 84.449,50.885 84.595,50.688 84.774 C 50.491 84.953,49.057 85.578,47.502 86.162 C 45.947 86.746,44.514 87.363,44.317 87.533 C 44.120 87.703,43.675 87.842,43.328 87.842 C 42.883 87.842,42.626 88.289,42.455 89.359 C 41.396 95.979,29.406 93.909,29.406 87.107 C 29.406 84.510,33.609 80.302,36.203 80.302 C 36.529 80.302,36.957 80.162,37.154 79.992 C 37.351 79.822,38.699 79.212,40.151 78.636 C 44.100 77.069,44.190 77.033,45.674 76.382 C 46.431 76.049,47.148 75.778,47.267 75.778 C 47.386 75.778,48.633 75.250,50.038 74.606 C 54.505 72.556,58.658 71.008,61.263 70.421 C 66.071 69.338,67.902 68.982,72.385 68.259 C 76.290 67.630,82.262 65.845,85.768 64.259 C 92.694 61.125,99.760 58.643,105.749 57.240 C 109.262 56.416,110.515 56.168,115.067 55.391 L 119.860 54.573 120.833 51.509 C 126.881 32.465,133.012 24.128,140.968 24.128 C 141.439 24.128,142.276 23.894,142.826 23.609 C 145.319 22.314,146.059 22.108,148.299 22.082 C 150.767 22.054,152.227 22.560,153.655 23.940 C 157.876 28.017,155.973 34.807,150.801 34.125 C 145.257 33.394,145.719 33.347,144.644 34.756 C 142.652 37.368,140.340 42.849,138.552 49.199 C 138.201 50.443,137.760 51.851,137.572 52.327 C 137.383 52.803,137.229 53.355,137.229 53.552 C 137.229 53.769,140.440 53.911,145.309 53.911 L 153.389 53.911 154.021 50.990 C 156.965 37.384,164.654 26.514,175.306 20.898 C 179.179 18.856,185.680 21.041,186.405 24.628 C 186.496 25.079,186.684 25.957,186.822 26.579 C 188.043 32.060,186.546 35.061,182.591 35.061 C 180.365 35.061,177.945 33.387,177.945 31.848 C 177.945 29.735,172.290 39.605,169.299 46.937 C 169.130 47.352,168.800 48.165,168.567 48.745 C 168.334 49.325,168.143 50.496,168.143 51.347 L 168.143 52.893 171.631 52.608 C 173.549 52.451,185.721 52.173,198.680 51.991 C 211.640 51.809,224.025 51.505,226.202 51.316 C 235.832 50.480,246.237 49.775,249.045 49.770 L 252.096 49.764 252.532 48.307 C 252.772 47.505,252.971 46.530,252.974 46.139 C 252.980 45.452,253.777 42.823,254.449 41.282 C 254.629 40.867,255.040 39.927,255.362 39.192 C 258.435 32.169,263.702 27.472,269.882 26.241 C 271.533 25.912,272.986 25.380,273.470 24.925 C 277.547 21.095,283.253 21.436,285.361 25.636 C 287.965 30.826,286.350 36.946,282.376 36.946 C 282.129 36.946,281.435 37.296,280.835 37.723 C 279.292 38.822,277.417 39.046,275.941 38.310 C 274.250 37.466,274.295 37.445,272.493 39.868 C 271.606 41.060,270.771 42.121,270.636 42.224 C 270.363 42.434,266.918 49.136,266.918 49.456 C 266.918 49.568,270.778 49.771,275.495 49.909 C 280.212 50.046,285.366 50.260,286.948 50.383 L 289.825 50.608 290.469 48.584 C 291.405 45.643,295.829 36.310,296.701 35.438 C 296.805 35.335,297.221 34.656,297.625 33.930 C 303.514 23.370,316.836 15.354,321.417 19.615 M171.149 130.249 C 177.632 133.602,180.133 147.901,176.241 159.364 C 174.363 164.895,171.695 170.722,168.165 177.003 C 161.909 188.135,148.908 203.467,137.323 213.375 C 134.625 215.683,133.963 216.771,135.250 216.782 C 135.944 216.788,137.659 217.383,139.868 218.383 C 141.761 219.240,145.360 221.839,147.575 223.949 C 156.498 232.445,159.905 232.613,174.902 225.297 C 179.995 222.812,182.393 223.118,184.010 226.458 C 185.448 229.427,184.136 231.865,180.017 233.881 C 161.086 243.151,153.648 242.867,142.130 232.435 C 134.216 225.266,129.192 224.362,118.278 228.142 C 114.375 229.493,111.216 227.450,111.216 223.574 C 111.216 221.356,111.833 220.644,117.327 216.516 C 120.035 214.482,122.694 212.485,123.236 212.077 C 147.751 193.651,168.143 164.265,168.143 147.363 C 168.143 138.831,166.366 137.672,162.056 143.394 C 159.182 147.212,158.570 148.916,160.073 148.916 C 162.004 148.916,163.725 151.525,163.700 154.412 C 163.625 162.702,152.290 167.065,148.708 160.182 C 145.574 154.159,150.212 139.581,157.092 133.830 C 162.170 129.584,167.324 128.271,171.149 130.249 M267.742 132.288 C 272.122 133.980,271.802 140.649,267.295 141.593 C 264.902 142.094,260.528 143.569,257.304 144.963 C 256.682 145.231,254.222 146.250,251.838 147.227 C 248.983 148.396,247.245 149.338,246.748 149.985 C 246.334 150.526,245.398 151.576,244.669 152.320 C 243.374 153.640,243.318 153.827,242.272 160.248 C 241.683 163.865,240.795 168.299,240.299 170.102 C 239.002 174.815,239.033 175.021,240.999 174.777 C 256.696 172.830,267.592 178.194,274.038 191.040 C 277.347 197.636,278.599 207.555,276.928 213.949 C 275.829 218.158,275.653 218.647,273.674 222.997 C 266.865 237.966,252.035 247.314,235.097 247.314 C 222.719 247.314,217.378 240.967,223.884 233.991 C 227.226 230.407,231.811 231.686,232.790 236.475 C 233.038 237.685,233.895 237.771,239.397 237.136 C 262.430 234.478,275.778 207.552,262.245 191.046 C 257.112 184.786,247.477 182.585,238.377 185.594 C 233.748 187.124,230.972 187.034,228.930 185.286 C 226.464 183.175,226.423 181.603,228.652 174.552 C 230.378 169.092,231.498 164.500,232.238 159.849 C 233.056 154.708,234.095 149.983,234.630 148.971 C 237.557 143.439,238.648 142.257,242.413 140.541 C 243.346 140.116,245.127 139.304,246.371 138.736 C 257.469 133.672,265.248 131.325,267.742 132.288 M92.948 277.268 C 94.741 279.061,93.943 281.765,91.314 282.812 C 89.459 283.551,85.035 284.624,83.820 284.631 C 81.065 284.646,81.065 284.478,83.845 290.399 C 90.950 305.524,87.084 315.757,73.352 318.174 C 67.407 319.220,63.705 318.385,63.041 315.848 C 61.946 311.661,66.983 307.736,69.579 310.753 C 70.672 312.024,71.938 312.076,74.915 310.973 C 81.732 308.448,82.732 303.281,78.227 293.873 C 77.433 292.215,76.242 289.585,75.582 288.030 L 74.381 285.203 70.735 284.962 C 61.801 284.373,59.511 282.985,61.463 279.338 C 62.299 277.776,66.294 276.813,67.391 277.909 C 67.695 278.214,70.194 278.330,75.709 278.295 C 83.349 278.247,85.694 277.971,88.596 276.778 C 90.287 276.083,91.950 276.270,92.948 277.268 M123.506 279.538 C 128.097 282.546,129.899 301.700,127.045 317.137 C 125.950 323.056,120.353 322.005,120.783 315.961 C 121.474 306.245,121.510 303.864,120.967 303.864 C 120.142 303.864,114.469 306.116,114.024 306.620 C 113.806 306.867,113.412 307.747,113.147 308.577 C 111.372 314.144,109.473 317.559,107.832 318.131 C 104.108 319.429,102.288 314.829,103.835 308.026 C 104.518 305.022,106.489 298.759,107.071 297.743 C 107.277 297.383,107.446 296.929,107.446 296.734 C 107.446 296.539,108.040 295.094,108.765 293.523 C 109.542 291.841,110.085 290.076,110.085 289.231 C 110.085 287.815,110.359 287.370,112.387 285.503 C 112.883 285.046,114.053 283.650,114.986 282.401 C 117.682 278.791,120.779 277.751,123.506 279.538 M239.939 281.135 C 241.639 282.835,242.588 286.321,243.563 294.439 L 243.993 298.021 245.681 297.886 C 250.140 297.531,250.637 302.273,246.354 304.310 L 244.486 305.198 244.486 311.238 C 244.486 316.334,244.597 317.521,245.193 318.841 C 246.897 322.615,243.021 325.642,240.155 322.776 C 238.506 321.128,237.889 318.422,237.889 312.844 C 237.889 307.788,237.864 307.727,236.123 308.455 C 235.539 308.699,234.043 308.996,232.799 309.115 L 230.537 309.331 230.262 313.289 C 229.767 320.398,228.789 322.488,225.954 322.488 C 222.867 322.488,221.967 318.283,223.380 310.462 C 224.156 306.165,224.028 300.946,222.962 293.486 C 222.551 290.604,224.835 289.335,228.369 290.482 C 228.960 290.673,229.218 290.606,229.218 290.259 C 229.218 288.977,232.660 282.795,234.097 281.497 C 236.100 279.688,238.352 279.548,239.939 281.135 M206.984 282.846 C 207.673 283.313,208.389 284.204,208.575 284.826 C 208.762 285.448,209.066 286.296,209.251 286.711 C 212.568 294.145,211.687 300.933,206.385 308.787 C 198.547 320.397,189.074 321.272,185.605 310.706 C 184.796 308.241,184.468 292.793,185.195 291.423 C 186.256 289.426,188.833 289.088,190.376 290.745 C 191.084 291.505,191.141 292.066,191.154 298.375 C 191.180 312.150,193.155 314.633,198.731 307.901 C 203.812 301.764,205.907 295.229,204.053 291.293 C 201.640 286.170,201.659 283.604,204.117 282.533 C 205.629 281.875,205.534 281.864,206.984 282.846 M297.165 285.715 C 297.664 286.309,298.461 287.963,298.936 289.391 C 301.148 296.045,303.471 299.853,306.163 301.238 L 307.520 301.936 308.291 300.544 C 311.005 295.645,313.666 290.180,313.666 289.505 C 313.666 286.033,318.886 285.158,320.029 288.437 C 320.683 290.312,316.806 300.140,314.013 303.692 C 313.234 304.682,303.864 323.597,303.864 324.179 C 303.864 327.954,299.535 330.877,297.197 328.681 C 295.431 327.022,296.032 324.871,301.260 314.151 C 304.796 306.901,304.660 307.942,302.251 306.583 C 298.767 304.617,296.200 300.893,293.679 294.146 C 293.236 292.959,292.547 291.460,292.148 290.813 C 289.739 286.907,294.282 282.290,297.165 285.715 M152.365 286.760 C 153.773 288.033,160.226 304.955,160.226 307.375 C 160.226 307.690,160.435 308.018,160.691 308.103 C 161.290 308.303,162.396 305.025,164.389 297.141 C 166.970 286.933,168.145 285.592,173.222 287.068 C 177.273 288.246,177.528 292.787,173.583 293.527 C 172.084 293.808,171.816 294.202,171.171 297.078 C 170.648 299.408,168.929 305.512,167.815 308.993 C 165.202 317.160,161.194 320.250,157.658 316.822 C 156.001 315.215,155.677 314.427,152.129 303.393 C 150.945 299.712,149.834 296.788,149.660 296.896 C 148.845 297.399,146.242 308.201,146.027 311.970 C 145.713 317.477,144.911 318.944,142.218 318.944 C 139.308 318.944,137.901 312.885,139.637 307.835 C 139.924 306.999,140.542 304.703,141.009 302.733 C 144.431 288.303,148.202 282.999,152.365 286.760 M119.836 286.787 C 118.024 288.911,116.194 294.305,116.132 297.704 L 116.117 298.519 118.576 297.627 C 122.072 296.359,121.870 296.694,121.569 292.678 C 121.205 287.822,120.627 285.859,119.836 286.787 M276.440 287.590 C 280.117 290.120,280.953 294.978,278.322 298.522 L 277.390 299.777 278.314 300.784 C 280.999 303.711,282.408 307.549,282.929 313.361 C 283.112 315.399,283.404 316.507,283.913 317.094 C 285.455 318.871,284.652 321.362,282.117 322.667 C 279.446 324.043,276.721 321.851,276.718 318.322 C 276.709 309.505,274.247 304.086,270.123 303.804 L 268.238 303.676 267.980 309.889 C 267.666 317.492,267.504 318.410,266.273 319.551 C 263.627 322.003,260.665 319.677,261.042 315.443 C 261.547 309.768,261.614 303.938,261.209 300.848 C 260.978 299.086,260.768 296.626,260.743 295.382 C 260.718 294.138,260.474 292.728,260.201 292.249 C 259.099 290.317,260.650 287.926,263.071 287.822 C 263.839 287.788,265.231 287.391,266.164 286.939 C 268.920 285.604,274.023 285.927,276.440 287.590 M235.309 292.612 C 233.852 296.229,231.962 302.377,232.251 302.556 C 232.407 302.652,233.593 302.349,234.887 301.884 L 237.240 301.037 237.023 296.427 C 236.748 290.623,236.412 289.874,235.309 292.612 M268.842 293.402 C 267.811 296.137,267.882 296.829,269.168 296.572 C 273.607 295.684,274.895 292.554,270.821 292.554 C 269.446 292.554,269.107 292.700,268.842 293.402 " stroke="none" fill="#fbfbf6" fill-rule="evenodd"></path><path id="path2" d="M164.185 129.955 C 149.918 133.324,141.330 163.289,154.647 163.234 C 162.421 163.202,166.953 152.146,160.383 149.240 C 158.390 148.358,158.419 148.713,160.101 145.843 C 165.354 136.880,168.163 137.515,168.169 147.666 C 168.180 166.372,148.220 193.640,117.773 216.517 C 111.494 221.235,110.814 222.178,111.599 225.092 C 112.409 228.102,114.881 228.910,119.214 227.581 C 129.922 224.296,134.309 225.102,141.600 231.693 C 151.355 240.513,157.392 242.127,167.955 238.739 C 169.614 238.206,171.132 237.628,171.329 237.453 C 171.526 237.278,171.917 237.135,172.197 237.135 C 173.508 237.135,182.703 232.321,183.414 231.263 C 184.411 229.778,184.410 227.095,183.412 225.756 C 181.613 223.345,179.491 223.358,174.393 225.811 C 160.908 232.299,156.833 232.379,149.901 226.296 C 144.085 221.192,142.642 220.102,139.808 218.681 C 138.220 217.884,136.226 217.114,135.378 216.971 C 133.286 216.617,133.306 216.580,137.700 212.704 C 144.031 207.119,150.933 200.161,154.390 195.878 C 155.215 194.856,156.325 193.499,156.855 192.862 C 158.806 190.524,163.202 184.454,165.202 181.338 C 167.001 178.536,168.218 176.386,171.709 169.840 C 182.650 149.327,178.364 126.606,164.185 129.955 M264.090 132.384 C 261.974 132.903,258.952 133.806,258.058 134.186 C 257.644 134.362,255.099 135.398,252.403 136.488 C 241.907 140.732,237.571 143.179,236.922 145.223 C 236.785 145.655,236.199 146.754,235.621 147.667 C 234.605 149.269,233.842 151.912,233.032 156.645 C 232.819 157.889,232.368 160.518,232.031 162.488 C 231.693 164.458,231.281 166.494,231.115 167.012 C 230.949 167.531,230.603 168.718,230.346 169.651 C 229.481 172.793,228.789 175.113,228.489 175.872 C 225.369 183.769,228.667 187.953,236.381 185.883 C 248.571 182.612,255.110 183.540,260.938 189.368 C 271.015 199.445,270.078 215.594,258.703 227.866 C 252.961 234.060,245.118 237.406,235.815 237.628 L 232.799 237.700 232.680 236.465 C 232.259 232.092,227.149 230.893,223.915 234.410 C 218.765 240.011,221.924 245.648,230.965 246.992 C 238.939 248.179,253.742 244.588,259.093 240.170 C 259.354 239.956,260.530 239.016,261.707 238.082 C 272.798 229.284,279.373 213.067,276.919 200.566 C 273.255 181.906,257.495 171.177,239.618 175.172 C 238.648 175.389,238.553 175.334,238.803 174.702 C 239.266 173.534,241.201 165.454,241.457 163.619 C 241.587 162.686,241.841 161.159,242.021 160.226 C 242.201 159.293,242.560 157.302,242.817 155.801 C 243.186 153.655,243.475 152.948,244.170 152.492 C 244.657 152.174,245.464 151.264,245.965 150.470 C 246.908 148.977,257.645 144.061,263.756 142.325 C 267.913 141.144,268.563 140.901,269.197 140.290 C 272.983 136.647,269.390 131.084,264.090 132.384 " stroke="none" fill="#0eb4e3" fill-rule="evenodd"></path><path id="path3" d="M87.088 277.315 C 83.767 278.441,68.416 278.933,67.427 277.945 C 66.102 276.621,61.708 278.017,61.232 279.913 C 60.382 283.302,62.253 284.383,69.746 284.828 C 74.059 285.084,75.024 285.371,75.024 286.400 C 75.024 286.696,75.966 288.914,77.118 291.329 C 80.966 299.394,81.814 303.362,80.381 306.601 C 78.652 310.509,71.704 313.224,69.623 310.804 C 66.704 307.411,61.260 312.747,63.600 316.708 C 65.795 320.423,77.644 318.507,83.164 313.544 C 88.688 308.577,88.798 301.072,83.512 289.759 C 81.164 284.735,81.147 284.894,84.072 284.556 C 90.193 283.847,93.685 282.031,93.685 279.554 C 93.685 276.448,91.666 275.762,87.088 277.315 M119.133 279.045 C 117.567 279.486,115.670 281.183,114.205 283.451 C 113.622 284.354,112.456 285.682,111.615 286.402 C 110.227 287.590,110.085 287.877,110.085 289.492 C 110.085 290.471,109.937 291.434,109.757 291.631 C 109.141 292.304,106.375 299.523,104.999 304.053 C 102.274 313.019,102.930 318.190,106.792 318.190 C 108.980 318.190,110.376 316.221,112.541 310.085 C 113.870 306.317,113.761 306.451,116.382 305.423 C 117.584 304.951,118.862 304.408,119.222 304.215 C 119.582 304.022,120.300 303.864,120.819 303.864 C 121.889 303.864,121.878 303.170,120.965 313.248 C 120.451 318.914,120.678 319.903,122.636 320.553 C 126.567 321.859,127.566 318.552,128.019 302.733 C 128.449 287.710,126.996 281.251,122.752 279.323 C 121.015 278.535,120.959 278.530,119.133 279.045 M234.205 281.527 C 232.704 282.956,230.441 286.785,229.611 289.300 C 229.166 290.648,228.064 291.171,227.521 290.292 C 226.064 287.934,222.172 291.718,223.166 294.527 C 223.946 296.728,224.104 306.999,223.417 310.839 C 221.989 318.834,222.770 322.337,225.982 322.337 C 228.789 322.337,229.720 320.340,230.173 313.348 L 230.446 309.142 232.235 309.142 C 233.219 309.142,234.745 308.888,235.627 308.577 C 236.508 308.266,237.378 308.011,237.559 308.011 C 237.740 308.011,237.891 310.174,237.895 312.818 C 237.905 321.904,241.013 326.434,244.704 322.743 C 246.003 321.445,246.063 320.725,245.060 318.514 C 244.420 317.104,244.313 316.032,244.306 310.962 L 244.298 305.054 245.627 304.615 C 250.398 303.041,250.393 297.387,245.621 297.925 C 243.762 298.135,243.813 298.237,243.338 293.308 C 242.215 281.636,238.765 277.185,234.205 281.527 M203.959 282.655 C 202.170 283.350,201.987 286.129,203.487 289.817 C 205.052 293.665,204.967 297.854,203.256 301.200 C 200.930 305.746,197.520 309.943,195.106 311.231 L 193.722 311.970 193.006 311.091 C 191.668 309.450,191.389 307.621,191.237 299.475 C 191.067 290.426,190.841 289.764,187.917 289.764 C 185.081 289.764,184.919 290.308,184.925 299.823 C 184.930 310.213,185.483 312.560,188.678 315.769 C 197.169 324.296,214.428 304.673,210.589 290.858 C 208.545 283.505,206.926 281.501,203.959 282.655 M292.589 285.543 C 291.329 286.883,291.110 289.306,292.123 290.676 C 292.566 291.276,293.201 292.580,293.534 293.574 C 295.686 300.002,299.089 305.015,302.344 306.555 C 304.698 307.668,304.735 307.301,301.644 313.526 C 296.053 324.783,295.531 326.506,297.106 328.507 C 299.098 331.041,303.864 327.911,303.864 324.068 C 303.864 323.733,304.026 323.164,304.224 322.804 C 304.422 322.444,305.795 319.689,307.275 316.682 C 310.050 311.046,313.134 305.138,315.546 300.838 C 320.726 291.603,321.355 287.807,317.922 286.494 C 316.129 285.808,313.666 287.688,313.666 289.742 C 313.666 290.329,311.642 294.480,308.861 299.596 C 307.611 301.896,307.581 301.920,306.525 301.477 C 304.127 300.468,301.840 297.427,300.240 293.120 C 300.009 292.498,299.355 290.716,298.785 289.161 C 297.122 284.615,294.758 283.234,292.589 285.543 M147.544 286.492 C 145.797 287.558,144.454 290.698,141.807 299.906 C 138.046 312.988,138.149 318.944,142.138 318.944 C 144.884 318.944,145.522 317.860,145.917 312.523 C 146.081 310.307,146.412 307.749,146.651 306.838 C 146.891 305.928,147.254 304.505,147.457 303.676 C 148.184 300.708,149.359 297.082,149.653 296.901 C 149.970 296.704,150.874 299.025,152.510 304.241 C 156.251 316.173,157.008 317.583,159.925 318.057 C 162.420 318.461,164.577 316.612,166.388 312.516 C 167.919 309.053,168.438 307.381,170.824 298.222 C 172.118 293.256,171.925 293.603,173.457 293.482 C 177.997 293.125,176.928 287.500,172.230 287.019 C 167.821 286.568,166.941 287.577,164.933 295.382 C 163.797 299.798,162.902 302.989,161.465 307.744 C 161.155 308.772,160.571 308.337,160.035 306.678 C 159.770 305.856,158.935 303.233,158.179 300.848 C 153.760 286.905,151.615 284.010,147.544 286.492 M120.984 287.936 C 121.214 288.921,121.443 291.237,121.493 293.082 L 121.583 296.438 118.981 297.512 C 115.867 298.798,116.114 298.778,116.131 297.738 C 116.175 295.184,117.527 290.290,118.741 288.292 C 120.324 285.689,120.454 285.668,120.984 287.936 M266.769 286.736 C 265.962 287.032,265.104 287.437,264.864 287.637 C 264.625 287.836,264.093 287.911,263.683 287.804 C 261.281 287.175,259.226 290.007,260.356 292.388 C 260.795 293.312,260.906 294.162,260.731 295.254 C 260.565 296.293,260.692 297.435,261.114 298.706 C 261.736 300.579,261.683 312.640,261.035 316.702 C 260.587 319.510,264.208 321.595,266.073 319.604 C 267.394 318.194,267.632 316.982,267.904 310.273 C 268.193 303.151,268.119 303.338,270.517 303.698 C 274.382 304.278,276.086 307.764,276.589 316.117 C 276.861 320.641,277.243 321.627,279.098 322.586 C 282.430 324.309,286.071 320.100,283.849 317.094 C 283.266 316.305,282.985 315.158,282.769 312.679 C 282.346 307.822,281.154 304.589,278.521 301.160 L 277.457 299.776 278.398 298.389 C 283.112 291.442,275.297 283.611,266.769 286.736 M237.068 295.718 C 237.528 301.156,237.639 300.845,234.835 301.932 C 231.482 303.233,231.464 302.969,234.368 295.005 C 236.484 289.202,236.519 289.212,237.068 295.718 M272.935 293.102 C 273.954 294.329,271.206 296.701,268.765 296.701 C 267.919 296.701,267.964 294.876,268.850 293.221 C 269.303 292.374,272.260 292.288,272.935 293.102 " stroke="none" fill="#fba50b" fill-rule="evenodd"></path><path id="path4" d="M312.979 19.649 C 311.667 20.285,310.675 20.886,310.774 20.985 C 310.873 21.084,311.682 20.793,312.572 20.339 C 313.462 19.885,314.794 19.292,315.531 19.020 C 316.382 18.706,316.596 18.520,316.117 18.509 C 315.702 18.500,314.290 19.013,312.979 19.649 M319.854 19.205 C 323.856 21.295,326.578 28.103,324.641 31.176 C 322.907 33.927,318.954 33.671,317.211 30.696 C 316.673 29.779,316.021 29.029,315.761 29.029 C 314.397 29.029,308.878 34.218,306.537 37.700 C 304.516 40.709,303.210 43.486,301.452 48.514 L 300.505 51.222 302.468 51.421 C 305.966 51.776,318.750 52.083,318.472 51.806 C 318.324 51.657,314.469 51.421,309.905 51.281 C 300.022 50.977,300.738 51.353,302.358 47.314 C 302.524 46.899,303.133 45.372,303.711 43.921 C 305.665 39.016,309.916 33.485,314.219 30.248 C 315.726 29.114,316.006 29.184,316.790 30.887 C 318.299 34.162,323.256 34.421,325.087 31.321 C 327.154 27.822,323.484 19.498,319.510 18.670 C 318.479 18.456,318.509 18.503,319.854 19.205 M176.792 20.316 C 174.572 21.041,168.246 25.543,165.088 28.644 C 160.391 33.256,155.893 42.338,154.021 50.990 L 153.389 53.911 145.309 53.911 C 140.440 53.911,137.229 53.769,137.229 53.552 C 137.229 53.355,137.383 52.803,137.572 52.327 C 137.760 51.851,138.201 50.443,138.552 49.199 C 140.340 42.849,142.652 37.368,144.644 34.756 C 145.719 33.347,145.257 33.394,150.801 34.125 C 155.973 34.807,157.876 28.017,153.655 23.940 C 152.227 22.560,150.767 22.054,148.299 22.082 C 146.059 22.108,145.319 22.314,142.826 23.609 C 142.276 23.894,141.439 24.128,140.968 24.128 C 133.012 24.128,126.881 32.465,120.833 51.509 L 119.860 54.573 115.067 55.391 C 108.053 56.588,107.088 56.783,106.814 57.057 C 106.437 57.434,107.227 57.359,110.199 56.735 C 115.895 55.538,116.588 55.419,117.867 55.419 C 119.508 55.419,120.640 54.838,120.644 53.992 C 120.646 53.398,122.876 46.422,123.622 44.675 C 123.799 44.260,124.246 43.157,124.617 42.224 C 129.260 30.516,132.604 26.665,139.680 24.878 C 141.131 24.512,143.138 23.854,144.141 23.416 C 149.239 21.189,154.319 23.234,155.376 27.939 C 156.302 32.059,152.299 35.189,148.620 33.220 C 146.052 31.845,143.389 34.434,141.007 40.620 C 140.547 41.813,140.030 43.129,139.857 43.544 C 139.684 43.959,139.105 45.740,138.571 47.502 C 138.036 49.265,137.408 51.330,137.174 52.093 C 136.334 54.836,136.268 54.815,145.118 54.540 C 153.917 54.266,154.194 54.215,154.194 52.878 C 154.194 49.131,157.918 39.437,161.520 33.808 C 165.190 28.072,174.291 20.927,178.535 20.449 C 181.878 20.072,185.481 22.428,186.189 25.453 C 186.485 26.718,186.547 26.789,186.579 25.900 C 186.713 22.150,181.058 18.923,176.792 20.316 M308.954 21.684 C 306.410 23.532,305.735 24.103,303.860 25.993 C 301.591 28.278,298.784 31.852,297.625 33.930 C 297.221 34.656,296.805 35.335,296.701 35.438 C 295.829 36.310,291.405 45.643,290.469 48.584 L 289.825 50.608 286.948 50.383 C 285.366 50.260,280.212 50.046,275.495 49.909 C 270.778 49.771,266.918 49.568,266.918 49.456 C 266.918 49.136,270.363 42.434,270.636 42.224 C 270.771 42.121,271.606 41.060,272.493 39.868 C 274.295 37.445,274.250 37.466,275.941 38.310 C 277.417 39.046,279.292 38.822,280.835 37.723 C 281.435 37.296,282.129 36.946,282.376 36.946 C 286.350 36.946,287.965 30.826,285.361 25.636 C 283.253 21.436,277.547 21.095,273.470 24.925 C 272.986 25.380,271.533 25.912,269.882 26.241 C 263.702 27.472,258.435 32.169,255.362 39.192 C 255.040 39.927,254.629 40.867,254.449 41.282 C 253.777 42.823,252.980 45.452,252.974 46.139 C 252.971 46.530,252.772 47.505,252.532 48.307 L 252.096 49.764 248.856 49.778 C 247.075 49.785,242.224 50.046,238.077 50.357 C 233.930 50.668,228.265 51.082,225.489 51.276 C 222.712 51.471,220.351 51.720,220.242 51.828 C 219.942 52.128,223.303 52.042,227.521 51.642 C 232.118 51.205,241.709 50.531,248.047 50.199 L 252.738 49.953 253.196 47.465 C 255.230 36.418,261.749 28.291,269.816 26.742 C 271.451 26.429,272.864 25.882,273.704 25.239 C 280.495 20.039,286.145 22.991,286.145 31.738 C 286.145 34.316,285.045 35.676,282.375 36.400 C 281.857 36.541,281.048 37.008,280.577 37.439 C 279.419 38.499,276.339 38.532,275.195 37.497 C 274.397 36.774,274.388 36.777,273.281 38.084 C 270.571 41.281,266.541 48.157,266.541 49.582 C 266.541 49.849,270.038 50.143,276.814 50.447 C 289.538 51.017,290.284 51.016,290.439 50.424 C 291.199 47.524,291.771 46.110,294.367 40.716 C 297.997 33.174,303.535 26.004,308.226 22.774 C 309.352 21.998,310.273 21.307,310.273 21.238 C 310.273 20.961,309.667 21.166,308.954 21.684 M186.806 28.849 C 187.501 34.464,180.928 37.143,178.573 32.204 C 178.234 31.495,177.783 30.914,177.570 30.914 C 176.424 30.914,168.065 47.063,168.169 49.078 C 168.192 49.532,168.375 49.185,169.297 46.937 C 172.348 39.499,177.945 29.734,177.945 31.848 C 177.945 33.387,180.365 35.061,182.591 35.061 C 186.129 35.061,188.895 30.295,186.966 27.521 C 186.681 27.112,186.637 27.480,186.806 28.849 M167.677 50.518 C 166.870 53.260,167.308 53.587,171.189 53.137 C 172.728 52.959,180.094 52.783,187.559 52.747 C 195.024 52.710,205.118 52.553,209.991 52.398 C 215.718 52.216,210.852 52.168,196.230 52.262 C 183.789 52.341,172.390 52.509,170.900 52.634 L 168.191 52.863 168.073 51.219 C 167.973 49.826,167.912 49.719,167.677 50.518 M322.337 52.456 C 326.026 52.885,329.889 53.515,332.705 54.147 C 335.209 54.709,336.162 54.792,335.787 54.418 C 335.263 53.893,323.758 52.027,321.395 52.083 C 319.717 52.123,319.820 52.164,322.337 52.456 M336.318 54.810 C 336.635 55.102,345.824 57.317,345.998 57.144 C 346.097 57.045,345.691 56.858,345.096 56.728 C 344.502 56.598,343.676 56.358,343.261 56.195 C 341.286 55.417,335.786 54.320,336.318 54.810 M102.922 57.915 C 101.989 58.218,100.038 58.832,98.586 59.279 C 95.762 60.150,89.289 62.657,85.932 64.181 C 82.288 65.835,76.371 67.617,72.385 68.259 C 70.008 68.642,68.101 68.978,64.370 69.671 C 63.383 69.854,62.464 70.116,62.328 70.252 C 61.955 70.624,62.735 70.555,65.524 69.969 C 66.913 69.677,69.321 69.234,70.877 68.983 C 76.200 68.125,81.247 66.614,87.465 64.016 C 93.246 61.601,98.858 59.577,102.922 58.441 C 103.855 58.180,105.042 57.831,105.561 57.665 L 106.503 57.364 105.561 57.364 C 105.042 57.364,103.855 57.612,102.922 57.915 M347.031 57.680 C 347.446 57.859,349.821 58.640,352.309 59.416 C 354.797 60.192,356.994 60.967,357.191 61.139 C 357.388 61.311,357.767 61.451,358.034 61.451 C 359.022 61.451,366.562 65.256,369.234 67.103 C 375.189 71.220,382.273 79.989,384.466 85.957 C 385.636 89.143,386.064 133.498,385.129 154.760 C 384.987 157.986,384.995 158.032,385.304 155.702 C 386.895 143.673,386.664 91.233,384.998 86.076 C 384.485 84.490,381.542 79.144,380.782 78.417 C 380.673 78.313,379.598 76.923,378.393 75.327 C 374.316 69.931,369.531 66.091,363.242 63.170 C 358.772 61.093,356.346 60.164,350.435 58.268 C 347.543 57.341,345.373 56.966,347.031 57.680 M236.758 59.636 C 228.447 60.502,227.674 60.654,232.611 60.450 C 235.203 60.342,238.680 60.101,240.339 59.913 C 241.998 59.726,245.349 59.571,247.785 59.569 L 252.215 59.566 252.252 65.693 C 252.273 69.062,252.425 72.243,252.589 72.762 C 252.753 73.280,252.807 70.650,252.708 66.918 C 252.609 63.186,252.463 59.920,252.384 59.661 C 252.212 59.104,242.013 59.088,236.758 59.636 M265.096 60.742 L 265.160 62.394 265.311 60.921 L 265.463 59.449 275.333 59.688 C 280.761 59.820,285.859 60.042,286.662 60.181 L 288.121 60.434 287.898 62.356 C 287.121 69.065,287.411 69.562,288.361 63.148 C 288.941 59.227,289.665 59.461,276.356 59.261 L 265.033 59.090 265.096 60.742 M298.356 60.368 C 295.859 64.258,296.838 73.147,300.606 80.801 C 303.849 87.388,303.879 89.478,300.753 91.037 C 298.177 92.322,295.975 91.401,294.483 88.414 C 293.482 86.409,293.063 86.145,291.776 86.707 C 290.922 87.080,290.942 87.095,292.062 86.923 C 293.057 86.770,293.312 86.882,293.529 87.568 C 294.771 91.481,298.516 93.164,301.477 91.140 C 304.062 89.373,304.097 86.612,301.594 81.746 C 300.706 80.019,299.835 78.308,299.660 77.945 C 299.484 77.582,299.189 76.979,299.005 76.603 C 297.834 74.222,297.315 66.689,298.051 62.771 L 298.405 60.886 303.303 60.680 C 306.858 60.531,307.425 60.452,305.372 60.394 C 303.817 60.350,301.677 60.210,300.616 60.082 C 299.193 59.911,298.601 59.986,298.356 60.368 M220.170 60.947 C 219.237 61.010,207.531 61.232,194.156 61.440 C 180.782 61.648,169.331 61.960,168.709 62.132 C 167.394 62.497,167.008 66.165,167.727 71.442 C 168.047 73.784,168.080 73.444,168.023 68.426 L 167.959 62.771 169.842 62.533 C 170.878 62.402,183.431 62.086,197.738 61.831 C 212.045 61.576,224.430 61.235,225.259 61.074 C 226.882 60.758,224.043 60.687,220.170 60.947 M312.912 61.059 C 314.053 61.234,316.333 61.394,317.979 61.414 C 319.626 61.435,321.916 61.620,323.069 61.825 C 324.222 62.030,326.568 62.455,328.283 62.768 C 331.504 63.355,332.778 63.472,332.456 63.151 C 331.780 62.474,321.761 61.113,316.026 60.918 C 312.419 60.795,311.470 60.838,312.912 61.059 M134.819 63.933 C 134.411 64.995,134.576 66.541,135.189 67.417 C 135.948 68.501,135.765 71.135,134.658 75.024 C 133.855 77.848,133.525 81.337,134.213 79.736 C 134.391 79.321,134.549 78.344,134.564 77.563 C 134.578 76.783,134.739 75.850,134.921 75.490 C 136.413 72.535,136.716 69.368,135.700 67.335 C 134.985 65.903,134.912 65.453,135.269 64.671 L 135.698 63.729 143.155 63.619 L 150.613 63.508 142.830 63.422 C 136.030 63.347,135.019 63.412,134.819 63.933 M153.542 66.164 C 153.535 67.823,153.659 69.689,153.817 70.311 C 154.211 71.860,154.219 69.056,153.831 65.598 L 153.555 63.148 153.542 66.164 M333.381 63.573 C 333.511 63.703,334.261 63.940,335.046 64.101 C 336.764 64.451,342.132 65.872,343.450 66.324 C 343.968 66.502,345.919 67.105,347.785 67.665 C 349.651 68.225,351.517 68.819,351.932 68.985 C 352.347 69.150,354.298 69.928,356.268 70.714 C 358.238 71.499,360.019 72.258,360.226 72.401 C 360.434 72.544,361.395 73.096,362.362 73.628 C 366.865 76.106,372.226 82.122,375.376 88.233 L 376.437 90.292 376.411 119.698 C 376.392 140.449,376.479 147.163,376.705 142.507 C 377.399 128.228,376.915 90.513,376.014 88.562 C 370.703 77.075,361.298 70.607,342.696 65.648 C 341.140 65.234,338.596 64.548,337.041 64.124 C 334.138 63.334,332.965 63.157,333.381 63.573 M117.248 64.358 C 111.300 65.100,99.423 68.347,94.726 70.516 C 93.847 70.922,93.046 71.254,92.946 71.254 C 92.845 71.254,91.868 71.659,90.774 72.154 C 88.146 73.343,84.207 74.885,82.564 75.368 C 79.375 76.305,78.964 76.471,79.763 76.502 C 80.834 76.543,84.710 75.289,86.800 74.226 C 87.160 74.042,87.614 73.893,87.809 73.893 C 88.004 73.893,89.449 73.299,91.020 72.573 C 92.591 71.847,93.978 71.254,94.101 71.254 C 94.224 71.254,94.945 70.982,95.702 70.650 C 99.226 69.103,101.964 68.237,109.237 66.366 C 111.437 65.800,116.668 64.844,117.568 64.844 C 118.366 64.844,118.379 64.949,118.409 71.536 C 118.452 81.262,119.135 84.207,121.653 85.525 C 123.198 86.334,125.270 86.052,126.687 84.841 C 127.523 84.126,128.424 83.720,129.193 83.710 C 131.297 83.683,133.836 82.210,133.836 81.016 C 133.836 80.786,133.344 81.126,132.742 81.770 C 131.709 82.875,130.769 83.160,128.815 82.956 C 128.438 82.917,127.844 83.204,127.496 83.593 C 125.473 85.855,123.063 86.209,121.064 84.540 C 119.399 83.150,119.161 81.814,118.880 72.279 C 118.753 67.971,118.545 64.399,118.419 64.343 C 118.293 64.287,117.766 64.293,117.248 64.358 M265.284 73.516 L 265.478 81.998 263.465 84.105 C 259.685 88.060,255.757 88.167,254.510 84.348 C 253.700 81.869,252.910 76.674,253.120 75.212 L 253.337 73.704 252.750 75.024 C 252.299 76.039,252.251 76.647,252.540 77.663 C 252.747 78.388,253.183 80.303,253.509 81.918 C 254.349 86.082,255.896 87.842,258.713 87.842 C 259.532 87.842,262.394 86.357,262.394 85.932 C 262.394 85.787,263.200 84.885,264.185 83.927 L 265.975 82.185 265.855 77.379 C 265.788 74.736,265.589 70.877,265.412 68.803 C 265.178 66.070,265.143 67.366,265.284 73.516 M286.764 69.825 C 286.637 70.300,286.530 71.231,286.527 71.895 C 286.521 73.269,285.646 76.858,285.042 77.988 C 283.525 80.821,286.712 87.165,289.596 87.054 C 290.325 87.026,290.267 86.958,289.269 86.669 C 286.300 85.811,284.207 80.478,285.726 77.643 C 286.117 76.913,286.642 74.740,286.892 72.815 C 287.325 69.481,287.260 67.970,286.764 69.825 M58.624 71.122 C 57.795 71.443,56.098 72.096,54.854 72.572 C 53.610 73.048,51.442 73.964,50.038 74.607 C 48.633 75.251,47.386 75.778,47.267 75.778 C 47.148 75.778,46.431 76.049,45.674 76.382 C 44.190 77.033,44.100 77.069,40.151 78.636 C 38.699 79.212,37.351 79.822,37.154 79.992 C 36.957 80.162,36.529 80.302,36.203 80.302 C 33.609 80.302,29.406 84.510,29.406 87.107 C 29.406 93.909,41.396 95.979,42.455 89.359 C 42.626 88.289,42.883 87.842,43.328 87.842 C 43.675 87.842,44.120 87.703,44.317 87.533 C 44.514 87.363,45.947 86.746,47.502 86.162 C 49.057 85.578,50.491 84.953,50.688 84.774 C 50.885 84.595,51.255 84.449,51.510 84.449 C 51.765 84.449,53.046 83.959,54.356 83.362 C 58.967 81.258,60.423 80.679,61.100 80.679 C 61.476 80.679,61.877 80.528,61.991 80.343 C 62.105 80.159,62.751 79.917,63.427 79.806 C 64.103 79.695,65.504 79.415,66.541 79.183 C 67.578 78.952,69.868 78.519,71.631 78.222 C 77.333 77.260,78.419 77.032,78.703 76.736 C 78.994 76.433,76.541 76.740,74.270 77.292 C 73.544 77.469,71.678 77.808,70.123 78.047 C 65.619 78.738,60.161 80.223,57.485 81.485 C 57.066 81.683,53.507 83.168,49.576 84.786 C 42.726 87.605,42.418 87.777,42.187 88.906 C 41.172 93.870,33.774 94.406,30.633 89.745 C 27.948 85.761,30.728 82.792,40.905 78.772 C 45.921 76.790,49.955 75.129,51.649 74.347 C 52.790 73.821,55.589 72.749,57.870 71.964 C 60.151 71.179,61.593 70.537,61.074 70.537 C 60.556 70.538,59.453 70.801,58.624 71.122 M154.338 73.179 C 154.410 74.161,154.249 75.309,153.967 75.818 C 153.000 77.562,153.310 80.134,154.760 82.401 C 155.485 83.535,156.079 84.598,156.079 84.762 C 156.079 85.170,157.964 86.899,158.976 87.419 C 161.535 88.733,165.504 86.376,165.504 83.542 C 165.504 83.004,165.668 82.564,165.869 82.564 C 167.907 82.564,170.234 75.517,168.541 74.471 C 168.323 74.336,168.272 75.283,168.409 76.915 L 168.632 79.579 166.930 81.166 C 165.900 82.125,165.122 83.232,164.961 83.967 C 163.989 88.404,158.223 88.110,155.916 83.506 C 155.604 82.884,155.005 81.866,154.585 81.244 C 153.681 79.904,153.571 77.378,154.371 76.321 C 154.981 75.514,155.054 73.839,154.541 72.385 C 154.281 71.647,154.237 71.820,154.338 73.179 M22.251 86.754 C 19.554 87.830,18.983 89.390,18.731 96.364 C 18.601 99.980,18.640 101.241,18.841 99.906 C 19.012 98.765,19.169 96.495,19.190 94.860 C 19.279 87.776,23.166 84.543,26.993 88.369 L 28.275 89.651 28.275 102.351 L 28.275 115.051 27.152 116.621 C 26.155 118.013,25.985 118.660,25.648 122.337 C 25.440 124.618,25.100 128.011,24.894 129.877 C 24.459 133.805,24.414 135.184,24.730 134.868 C 24.948 134.650,25.092 133.348,26.034 123.091 C 26.370 119.435,26.652 117.999,27.144 117.436 C 28.605 115.767,28.652 115.298,28.652 102.345 C 28.652 90.301,28.614 89.601,27.906 88.606 C 26.581 86.746,24.215 85.971,22.251 86.754 M18.002 104.954 C 17.846 105.968,17.741 107.919,17.768 109.289 L 17.817 111.781 18.153 108.954 C 18.338 107.399,18.443 105.448,18.387 104.618 L 18.285 103.110 18.002 104.954 M17.218 113.060 C 17.079 113.756,16.961 115.280,16.956 116.447 C 16.951 117.613,16.796 119.246,16.613 120.075 C 16.203 121.925,15.666 129.580,15.967 129.295 C 16.171 129.100,16.397 127.120,17.376 116.970 C 17.784 112.746,17.699 110.655,17.218 113.060 M165.975 129.582 C 166.546 129.668,167.479 129.668,168.049 129.582 C 168.619 129.496,168.153 129.425,167.012 129.425 C 165.872 129.425,165.405 129.496,165.975 129.582 M15.460 130.820 C 15.271 132.713,14.634 138.597,14.359 140.999 C 13.634 147.315,13.149 153.103,13.291 153.724 C 13.375 154.086,13.566 153.025,13.717 151.367 C 13.867 149.708,14.146 147.163,14.335 145.712 C 15.154 139.439,15.915 131.259,15.724 130.777 C 15.556 130.355,15.506 130.363,15.460 130.820 M23.967 138.266 C 23.829 139.873,23.563 142.460,23.376 144.015 C 23.189 145.570,22.850 148.624,22.625 150.801 C 22.399 152.978,21.968 156.965,21.667 159.661 C 21.108 164.660,20.957 168.047,21.308 167.696 C 21.415 167.589,21.684 165.482,21.905 163.015 C 22.327 158.304,22.554 156.078,23.554 146.843 C 24.336 139.630,24.655 135.344,24.409 135.344 C 24.303 135.344,24.104 136.659,23.967 138.266 M270.775 136.852 C 270.775 137.578,270.853 137.875,270.948 137.512 C 271.043 137.149,271.043 136.555,270.948 136.192 C 270.853 135.829,270.775 136.126,270.775 136.852 M162.630 142.224 C 161.517 143.495,160.867 144.392,161.059 144.392 C 161.154 144.392,161.776 143.713,162.443 142.884 C 163.737 141.274,163.868 140.812,162.630 142.224 M148.397 148.365 C 148.268 148.702,148.177 149.261,148.195 149.607 C 148.212 149.953,148.376 149.735,148.559 149.124 C 148.914 147.934,148.789 147.345,148.397 148.365 M375.923 150.613 C 374.595 157.220,374.720 206.018,376.068 207.279 C 376.222 207.422,376.237 205.928,376.102 203.959 C 374.945 187.084,374.845 176.706,375.708 162.696 C 376.188 154.891,376.297 148.749,375.923 150.613 M167.625 152.733 C 167.311 154.305,167.615 154.609,167.955 153.063 C 168.098 152.411,168.136 151.800,168.040 151.704 C 167.944 151.608,167.757 152.071,167.625 152.733 M232.820 155.912 C 232.678 156.668,232.638 157.363,232.730 157.455 C 232.822 157.547,233.013 157.003,233.155 156.247 C 233.297 155.490,233.338 154.796,233.246 154.704 C 233.154 154.611,232.962 155.155,232.820 155.912 M12.848 155.137 C 12.808 155.344,12.616 157.295,12.422 159.472 C 12.227 161.649,11.894 165.297,11.681 167.578 C 10.929 175.629,10.605 180.425,10.635 183.035 C 10.661 185.271,10.714 185.041,10.981 181.527 C 11.464 175.164,12.049 168.529,12.682 162.239 C 13.133 157.747,13.243 153.087,12.848 155.137 M163.286 155.766 C 163.262 156.111,163.145 156.705,163.025 157.085 C 162.820 157.740,162.831 157.741,163.239 157.104 C 163.476 156.735,163.593 156.141,163.500 155.785 C 163.347 155.201,163.325 155.199,163.286 155.766 M176.506 157.279 C 176.282 158.161,176.164 158.947,176.243 159.027 C 176.323 159.106,176.580 158.458,176.814 157.587 C 177.049 156.716,177.167 155.929,177.077 155.839 C 176.987 155.749,176.730 156.397,176.506 157.279 M232.045 160.603 C 231.900 161.461,231.861 162.241,231.958 162.338 C 232.054 162.434,232.246 161.807,232.385 160.943 C 232.523 160.078,232.562 159.298,232.472 159.208 C 232.382 159.118,232.190 159.746,232.045 160.603 M384.411 162.546 C 384.105 166.856,384.170 195.362,384.493 198.680 C 384.624 200.028,384.731 191.673,384.731 180.113 C 384.731 168.553,384.714 159.095,384.694 159.095 C 384.673 159.095,384.546 160.648,384.411 162.546 M160.391 161.074 L 159.284 162.300 160.509 161.192 C 161.183 160.583,161.734 160.032,161.734 159.967 C 161.734 159.676,161.423 159.932,160.391 161.074 M149.941 161.742 C 150.608 162.442,151.218 162.939,151.296 162.846 C 151.374 162.753,150.828 162.180,150.083 161.573 L 148.728 160.469 149.941 161.742 M152.180 163.336 C 152.403 163.700,156.507 163.695,157.081 163.331 C 157.321 163.178,156.277 163.054,154.762 163.054 C 153.246 163.054,152.085 163.181,152.180 163.336 M231.146 165.568 C 231.122 165.914,231.005 166.507,230.886 166.887 C 230.680 167.542,230.691 167.543,231.100 166.906 C 231.337 166.537,231.454 165.943,231.360 165.587 C 231.207 165.003,231.186 165.001,231.146 165.568 M240.763 167.059 C 240.449 168.631,240.754 168.935,241.093 167.389 C 241.236 166.738,241.275 166.126,241.179 166.030 C 241.083 165.934,240.896 166.397,240.763 167.059 M20.622 171.725 C 20.475 173.591,20.189 176.984,19.987 179.265 C 19.479 184.983,19.071 197.039,19.395 196.736 C 19.541 196.600,19.812 193.037,19.997 188.819 C 20.183 184.601,20.518 178.702,20.742 175.709 C 20.966 172.717,21.091 169.833,21.020 169.300 C 20.949 168.768,20.770 169.859,20.622 171.725 M239.064 173.673 C 239.039 173.915,238.917 174.382,238.791 174.710 C 238.622 175.151,238.794 175.305,239.451 175.301 C 239.967 175.297,240.160 175.179,239.912 175.018 C 239.676 174.865,239.399 174.402,239.296 173.987 C 239.192 173.572,239.088 173.431,239.064 173.673 M246.277 174.445 C 246.847 174.532,247.780 174.532,248.351 174.445 C 248.921 174.359,248.454 174.288,247.314 174.288 C 246.173 174.288,245.707 174.359,246.277 174.445 M251.748 174.819 C 252.217 174.909,252.896 174.906,253.256 174.811 C 253.616 174.717,253.233 174.643,252.403 174.647 C 251.574 174.652,251.279 174.729,251.748 174.819 M262.017 178.073 C 262.017 178.167,262.865 178.788,263.901 179.452 C 264.937 180.117,267.006 181.959,268.499 183.545 C 269.993 185.130,270.851 185.906,270.407 185.268 C 268.833 183.008,262.017 177.163,262.017 178.073 M227.051 181.150 C 227.055 181.979,227.132 182.274,227.222 181.805 C 227.313 181.336,227.309 180.658,227.215 180.297 C 227.120 179.937,227.047 180.320,227.051 181.150 M227.333 183.467 C 227.333 183.670,227.884 184.335,228.558 184.944 L 229.783 186.051 228.652 184.733 C 228.030 184.009,227.479 183.344,227.427 183.257 C 227.375 183.169,227.333 183.264,227.333 183.467 M245.523 184.254 C 246.508 184.332,248.120 184.332,249.105 184.254 C 250.090 184.177,249.284 184.113,247.314 184.113 C 245.344 184.113,244.538 184.177,245.523 184.254 M148.529 187.653 C 147.220 189.260,146.502 190.265,146.934 189.887 C 147.796 189.131,151.324 184.731,151.068 184.731 C 150.981 184.731,149.838 186.046,148.529 187.653 M235.250 186.239 C 234.473 186.488,234.440 186.547,235.061 186.573 C 235.476 186.591,236.070 186.440,236.381 186.239 C 237.041 185.813,236.583 185.813,235.250 186.239 M10.087 190.009 C 9.933 191.772,9.831 195.589,9.860 198.492 L 9.914 203.770 10.239 197.738 C 10.417 194.420,10.519 190.603,10.465 189.255 L 10.368 186.805 10.087 190.009 M159.420 189.538 C 158.335 190.848,157.875 191.517,158.062 191.517 C 158.166 191.517,158.705 190.924,159.258 190.198 C 160.285 188.851,160.410 188.343,159.420 189.538 M156.079 193.779 C 155.422 194.609,154.970 195.287,155.073 195.287 C 155.177 195.287,155.799 194.609,156.456 193.779 C 157.113 192.950,157.566 192.271,157.462 192.271 C 157.358 192.271,156.736 192.950,156.079 193.779 M138.541 198.775 L 134.779 202.639 138.643 198.876 C 142.232 195.381,142.678 194.910,142.406 194.910 C 142.350 194.910,140.611 196.649,138.541 198.775 M18.719 205.844 C 18.543 210.716,18.463 215.297,18.542 216.023 C 18.770 218.125,19.296 205.311,19.161 200.943 C 19.068 197.928,18.962 199.097,18.719 205.844 M276.802 199.623 C 276.806 200.038,276.939 200.886,277.097 201.508 C 277.356 202.524,277.386 202.543,277.392 201.697 C 277.396 201.178,277.263 200.330,277.097 199.811 C 276.861 199.073,276.797 199.032,276.802 199.623 M149.467 201.414 L 147.597 203.393 149.576 201.522 C 150.664 200.493,151.555 199.603,151.555 199.543 C 151.555 199.262,151.206 199.575,149.467 201.414 M267.148 201.131 C 267.458 202.517,267.674 202.818,267.666 201.854 C 267.663 201.456,267.488 200.877,267.278 200.566 C 266.998 200.153,266.963 200.305,267.148 201.131 M385.132 205.467 C 385.233 207.436,385.473 210.405,385.664 212.064 C 385.856 213.723,386.200 216.946,386.428 219.227 C 387.509 230.002,387.455 229.603,387.512 227.333 C 387.565 225.196,386.713 215.908,386.049 211.397 C 385.843 209.994,385.654 207.788,385.629 206.496 C 385.605 205.204,385.441 203.638,385.266 203.016 C 385.063 202.296,385.014 203.186,385.132 205.467 M9.466 204.901 C 9.352 205.814,8.881 219.164,8.290 238.266 C 7.778 254.819,7.991 285.055,8.657 290.292 C 9.330 295.579,9.504 296.560,9.684 296.070 C 9.773 295.826,9.656 294.129,9.424 292.300 C 8.300 283.431,8.301 243.378,9.426 217.173 C 9.774 209.053,9.797 202.272,9.466 204.901 M267.796 206.786 C 267.797 208.238,267.866 208.785,267.947 208.003 C 268.029 207.221,268.027 206.033,267.944 205.364 C 267.861 204.695,267.794 205.335,267.796 206.786 M141.553 209.331 L 139.303 211.687 141.659 209.437 C 143.848 207.347,144.188 206.975,143.909 206.975 C 143.851 206.975,142.790 208.035,141.553 209.331 M376.306 209.802 C 376.282 210.839,376.438 213.214,376.654 215.080 C 379.397 238.844,378.831 259.120,375.128 269.746 C 374.983 270.160,374.401 271.942,373.835 273.704 C 372.553 277.693,370.320 284.075,369.680 285.580 C 369.415 286.202,368.987 287.304,368.727 288.030 C 368.468 288.756,368.080 289.774,367.866 290.292 C 367.652 290.811,367.346 291.574,367.187 291.989 C 366.429 293.959,364.791 298.139,364.378 299.152 C 364.125 299.774,363.537 301.301,363.072 302.545 C 362.607 303.789,362.074 305.146,361.889 305.561 C 360.923 307.718,355.130 325.962,355.251 326.464 C 355.334 326.806,355.509 326.579,355.671 325.919 C 355.824 325.297,356.083 324.449,356.246 324.034 C 356.409 323.619,357.780 319.463,359.294 314.797 C 361.702 307.374,363.073 303.643,367.465 292.554 C 369.489 287.445,372.606 278.996,373.863 275.212 C 376.381 267.632,376.973 265.286,378.191 258.058 C 378.875 253.999,378.895 229.883,378.218 224.317 C 377.954 222.139,377.570 218.831,377.366 216.965 C 376.387 208.007,376.353 207.779,376.306 209.802 M276.956 212.300 C 276.823 212.962,276.785 213.574,276.870 213.659 C 276.955 213.745,277.142 213.281,277.286 212.630 C 277.429 211.978,277.467 211.366,277.371 211.270 C 277.275 211.174,277.088 211.637,276.956 212.300 M122.306 212.845 L 120.829 214.192 122.432 212.971 C 123.896 211.855,124.253 211.499,123.908 211.499 C 123.839 211.499,123.118 212.105,122.306 212.845 M137.771 212.724 L 136.664 213.949 137.889 212.842 C 139.031 211.810,139.287 211.499,138.996 211.499 C 138.931 211.499,138.380 212.050,137.771 212.724 M134.849 215.195 C 133.779 216.312,133.592 216.777,134.213 216.777 C 134.420 216.777,134.590 216.575,134.590 216.330 C 134.590 216.084,134.959 215.490,135.410 215.010 C 135.861 214.530,136.147 214.138,136.046 214.138 C 135.945 214.138,135.406 214.613,134.849 215.195 M118.002 216.069 C 116.688 217.220,116.688 217.222,117.896 216.418 C 118.564 215.974,119.210 215.449,119.332 215.251 C 119.696 214.663,119.394 214.848,118.002 216.069 M17.964 223.836 C 16.836 246.566,16.920 284.666,18.111 290.104 C 18.397 291.409,18.418 291.308,18.272 289.350 C 17.782 282.789,17.677 258.233,18.061 240.006 C 18.486 219.874,18.451 214.037,17.964 223.836 M147.769 224.411 C 149.332 226.075,149.670 226.375,149.670 226.092 C 149.670 226.031,148.864 225.225,147.879 224.301 L 146.089 222.620 147.769 224.411 M178.986 223.829 C 179.455 223.919,180.134 223.916,180.494 223.822 C 180.855 223.727,180.471 223.654,179.642 223.658 C 178.812 223.662,178.518 223.739,178.986 223.829 M127.521 226.102 C 128.506 226.179,130.118 226.179,131.103 226.102 C 132.088 226.024,131.282 225.961,129.312 225.961 C 127.342 225.961,126.536 226.024,127.521 226.102 M259.166 227.050 L 258.058 228.275 259.284 227.168 C 259.958 226.559,260.509 226.008,260.509 225.943 C 260.509 225.651,260.198 225.908,259.166 227.050 M150.391 226.706 C 150.942 227.392,153.063 229.007,153.063 228.741 C 153.063 228.658,152.342 228.017,151.461 227.317 C 150.580 226.616,150.098 226.341,150.391 226.706 M116.117 228.464 C 115.340 228.712,115.307 228.771,115.928 228.797 C 116.343 228.815,116.937 228.665,117.248 228.464 C 117.908 228.037,117.450 228.037,116.117 228.464 M161.923 230.349 C 161.447 230.553,161.378 230.673,161.734 230.673 C 162.045 230.673,162.639 230.527,163.054 230.349 C 163.529 230.144,163.599 230.025,163.242 230.025 C 162.931 230.025,162.337 230.171,161.923 230.349 M387.705 242.036 C 387.703 248.567,387.820 252.893,387.966 251.649 C 388.313 248.685,388.323 234.462,387.979 232.045 C 387.831 231.008,387.708 235.504,387.705 242.036 M252.980 232.441 C 252.260 232.949,251.836 233.364,252.037 233.363 C 252.239 233.362,252.912 232.944,253.534 232.434 C 254.987 231.243,254.670 231.247,252.980 232.441 M265.408 234.590 C 263.876 236.301,263.098 237.276,263.678 236.758 C 264.843 235.716,268.591 231.480,268.347 231.480 C 268.262 231.480,266.940 232.879,265.408 234.590 M141.753 231.975 C 141.753 232.040,142.304 232.591,142.978 233.200 L 144.204 234.307 143.096 233.082 C 142.064 231.940,141.753 231.683,141.753 231.975 M226.221 232.214 C 225.868 232.437,226.267 232.483,227.352 232.345 C 228.275 232.227,229.100 232.069,229.186 231.993 C 229.540 231.686,226.725 231.895,226.221 232.214 M223.919 234.025 L 222.620 235.438 224.034 234.139 C 225.350 232.930,225.621 232.611,225.333 232.611 C 225.270 232.611,224.634 233.247,223.919 234.025 M231.097 233.556 C 232.598 235.364,232.725 235.481,232.315 234.680 C 232.101 234.263,231.529 233.586,231.043 233.175 C 230.191 232.454,230.193 232.467,231.097 233.556 M232.706 237.135 C 232.816 237.543,233.428 237.711,234.902 237.738 L 236.946 237.776 235.069 237.620 C 234.036 237.534,233.047 237.262,232.872 237.016 C 232.651 236.706,232.600 236.742,232.706 237.135 M238.176 237.401 C 238.645 237.492,239.323 237.488,239.684 237.394 C 240.044 237.299,239.661 237.226,238.831 237.230 C 238.002 237.234,237.707 237.311,238.176 237.401 M154.948 240.151 C 155.467 240.317,156.230 240.453,156.645 240.453 C 157.242 240.453,157.202 240.390,156.456 240.151 C 155.938 239.985,155.174 239.849,154.760 239.849 C 154.163 239.849,154.202 239.912,154.948 240.151 M222.692 243.585 C 223.146 244.081,224.079 244.810,224.765 245.205 C 226.335 246.108,226.124 245.878,223.751 244.098 C 222.641 243.265,222.206 243.055,222.692 243.585 M244.486 246.183 C 244.011 246.387,243.941 246.507,244.298 246.507 C 244.609 246.507,245.203 246.361,245.617 246.183 C 246.093 245.979,246.162 245.859,245.806 245.859 C 245.495 245.859,244.901 246.005,244.486 246.183 M230.066 247.197 C 230.429 247.292,231.023 247.292,231.385 247.197 C 231.748 247.102,231.451 247.024,230.726 247.024 C 230.000 247.024,229.703 247.102,230.066 247.197 M237.983 247.207 C 238.553 247.293,239.486 247.293,240.057 247.207 C 240.627 247.121,240.160 247.050,239.020 247.050 C 237.879 247.050,237.413 247.121,237.983 247.207 M387.049 257.681 C 386.465 263.317,385.158 269.131,383.126 275.137 C 382.613 276.651,382.294 277.990,382.417 278.113 C 382.673 278.369,382.674 278.365,383.976 274.081 C 384.878 271.112,385.156 270.116,386.076 266.541 C 386.757 263.894,387.611 257.620,387.488 256.162 C 387.393 255.035,387.285 255.409,387.049 257.681 M70.594 278.488 C 70.957 278.583,71.550 278.583,71.913 278.488 C 72.276 278.393,71.979 278.316,71.254 278.316 C 70.528 278.316,70.231 278.393,70.594 278.488 M381.737 279.359 C 381.091 281.491,376.438 294.016,375.504 296.136 C 374.486 298.445,374.213 299.478,374.700 299.177 C 374.930 299.035,375.118 298.623,375.118 298.262 C 375.118 297.901,375.262 297.445,375.439 297.248 C 375.615 297.051,376.652 294.515,377.743 291.612 C 378.833 288.709,379.867 285.994,380.040 285.580 C 381.003 283.264,382.286 279.188,382.164 278.831 C 382.086 278.603,381.894 278.841,381.737 279.359 M18.475 292.774 C 18.475 293.379,18.817 296.418,19.235 299.529 C 19.652 302.639,20.166 306.617,20.377 308.370 C 20.765 311.596,21.126 312.819,21.096 310.807 C 21.080 309.781,20.819 307.608,19.988 301.602 C 19.802 300.254,19.473 297.557,19.257 295.609 C 18.868 292.095,18.472 290.660,18.475 292.774 M211.217 295.005 C 211.221 295.834,211.298 296.129,211.388 295.660 C 211.478 295.191,211.475 294.513,211.381 294.152 C 211.286 293.792,211.212 294.175,211.217 295.005 M128.302 298.586 C 128.302 299.934,128.370 300.485,128.454 299.811 C 128.537 299.138,128.537 298.035,128.454 297.361 C 128.370 296.687,128.302 297.238,128.302 298.586 M9.887 298.586 C 9.882 299.727,10.013 301.084,10.179 301.602 C 10.604 302.930,10.618 300.567,10.198 298.209 L 9.896 296.513 9.887 298.586 M261.366 301.225 C 261.366 302.158,261.439 302.540,261.529 302.074 C 261.619 301.607,261.619 300.844,261.529 300.377 C 261.439 299.910,261.366 300.292,261.366 301.225 M372.904 302.785 C 372.243 304.473,371.789 305.939,371.894 306.044 C 371.998 306.148,372.191 305.913,372.322 305.521 C 372.453 305.128,372.873 304.104,373.256 303.246 C 374.018 301.536,374.543 299.717,374.275 299.717 C 374.181 299.717,373.564 301.098,372.904 302.785 M10.769 305.372 C 10.865 306.927,11.105 309.218,11.301 310.462 C 11.498 311.706,11.831 313.911,12.042 315.363 C 12.777 320.435,12.868 320.905,13.078 320.695 C 13.296 320.477,12.383 313.629,10.960 304.807 L 10.595 302.545 10.769 305.372 M370.980 307.709 C 369.719 311.157,367.011 319.095,366.216 321.678 C 365.721 323.285,364.879 325.999,364.346 327.710 C 363.131 331.605,361.184 338.937,361.175 339.648 C 361.164 340.597,361.633 339.750,361.934 338.281 C 362.094 337.495,362.677 335.240,363.229 333.270 C 363.780 331.301,364.374 329.180,364.547 328.558 C 365.305 325.846,369.683 312.436,370.210 311.216 C 371.065 309.235,371.813 306.843,371.634 306.664 C 371.525 306.555,371.230 307.025,370.980 307.709 M261.366 310.650 C 261.366 311.583,261.439 311.965,261.529 311.499 C 261.619 311.032,261.619 310.269,261.529 309.802 C 261.439 309.336,261.366 309.717,261.366 310.650 M21.116 313.132 C 21.120 314.121,22.062 319.753,22.972 324.222 C 25.520 336.738,32.267 341.453,49.199 342.554 C 54.458 342.896,53.486 342.374,48.024 341.923 C 40.893 341.334,38.633 340.970,36.303 340.035 C 29.532 337.319,26.765 334.354,24.181 327.050 C 23.568 325.317,22.456 319.597,21.880 315.218 C 21.498 312.310,21.109 311.249,21.116 313.132 M13.354 323.061 C 13.727 325.982,15.374 331.971,15.712 331.634 C 15.821 331.524,15.646 330.617,15.323 329.619 C 15.000 328.621,14.453 326.362,14.108 324.599 C 13.386 320.911,12.971 320.065,13.354 323.061 M354.559 328.231 C 354.428 328.825,354.171 329.736,353.988 330.254 C 353.805 330.773,353.215 332.978,352.678 335.156 C 352.141 337.333,351.244 340.599,350.685 342.415 L 349.670 345.716 346.089 347.459 C 344.119 348.417,342.212 349.349,341.852 349.530 C 341.492 349.711,340.890 349.859,340.514 349.859 C 340.138 349.859,339.669 349.996,339.472 350.164 C 339.275 350.333,337.757 350.774,336.098 351.145 C 334.439 351.516,332.692 351.972,332.216 352.158 C 331.740 352.345,330.722 352.510,329.954 352.524 C 329.186 352.539,328.219 352.696,327.804 352.875 L 327.050 353.199 327.804 353.223 C 330.528 353.311,338.603 351.239,343.590 349.172 C 350.350 346.372,350.368 346.346,352.879 336.287 C 353.319 334.524,353.847 332.488,354.052 331.762 C 354.867 328.881,355.154 327.508,354.980 327.333 C 354.879 327.232,354.689 327.636,354.559 328.231 M15.834 332.298 C 15.834 333.901,19.527 339.901,22.094 342.469 C 24.666 345.044,32.126 349.482,33.881 349.482 C 34.121 349.482,34.612 349.633,34.972 349.818 C 36.193 350.446,39.383 350.978,42.978 351.153 L 46.560 351.327 43.732 350.971 C 34.678 349.832,30.364 348.286,24.760 344.171 C 21.604 341.853,16.588 335.049,16.588 333.085 C 16.588 332.797,16.418 332.456,16.211 332.328 C 16.004 332.200,15.834 332.186,15.834 332.298 M360.579 341.470 C 359.293 347.352,357.281 351.378,354.684 353.270 C 350.881 356.040,342.559 359.338,335.721 360.786 C 331.789 361.619,331.031 361.850,332.139 361.879 C 334.130 361.930,343.357 359.419,347.031 357.825 C 356.682 353.640,359.352 350.565,361.010 341.729 C 361.297 340.197,360.909 339.963,360.579 341.470 M56.739 343.117 C 58.605 343.286,63.186 343.603,66.918 343.821 C 70.650 344.040,75.994 344.385,78.794 344.588 C 88.716 345.309,91.420 345.435,91.171 345.166 C 90.914 344.888,86.316 344.530,74.081 343.834 C 70.349 343.621,65.098 343.278,62.413 343.072 C 59.728 342.865,56.589 342.722,55.438 342.753 C 53.694 342.801,53.911 342.862,56.739 343.117 M95.193 345.768 C 99.275 346.157,106.125 346.703,113.289 347.210 C 120.422 347.715,133.218 348.018,130.254 347.612 C 129.010 347.441,125.787 347.285,123.091 347.264 C 120.396 347.244,116.579 347.062,114.609 346.860 C 108.994 346.284,94.977 345.311,93.308 345.381 C 92.479 345.416,93.327 345.590,95.193 345.768 M139.114 348.401 C 146.207 348.807,154.498 349.404,159.472 349.865 C 167.191 350.581,169.459 350.711,169.190 350.422 C 169.039 350.261,167.088 349.984,164.854 349.807 C 162.620 349.630,158.671 349.316,156.079 349.108 C 146.441 348.337,140.339 347.995,137.041 348.041 C 134.090 348.082,134.360 348.129,139.114 348.401 M172.290 351.037 C 173.638 351.218,176.098 351.540,177.757 351.752 C 179.416 351.964,182.576 352.388,184.780 352.694 C 189.040 353.287,190.647 353.386,190.296 353.036 C 190.178 352.917,188.750 352.658,187.123 352.460 C 185.497 352.262,183.063 351.948,181.715 351.762 C 175.695 350.934,172.749 350.622,171.348 350.664 C 170.160 350.699,170.360 350.778,172.290 351.037 M47.180 351.529 C 47.472 351.842,51.880 352.176,74.647 353.608 C 82.098 354.076,86.961 354.073,81.621 353.603 C 79.755 353.439,74.920 353.119,70.877 352.893 C 66.833 352.667,61.489 352.321,59.001 352.123 C 50.430 351.444,46.938 351.268,47.180 351.529 M192.083 353.633 C 192.912 353.798,195.118 354.134,196.984 354.379 C 198.850 354.624,201.140 354.967,202.074 355.141 C 204.670 355.625,209.455 356.021,209.184 355.730 C 209.051 355.587,207.609 355.309,205.979 355.111 C 204.349 354.913,201.913 354.591,200.566 354.396 C 199.218 354.200,196.927 353.868,195.476 353.658 C 192.199 353.184,189.739 353.166,192.083 353.633 M318.379 353.673 C 316.305 353.845,311.979 354.163,308.765 354.380 C 297.045 355.171,294.009 355.441,293.756 355.715 C 293.613 355.869,294.939 355.886,296.701 355.754 C 298.464 355.623,302.111 355.347,304.807 355.142 C 307.502 354.938,312.507 354.587,315.928 354.363 C 319.350 354.139,323.167 353.819,324.411 353.652 L 326.673 353.348 324.411 353.355 C 323.167 353.358,320.452 353.502,318.379 353.673 M86.899 354.374 C 87.729 354.562,89.549 354.726,90.945 354.738 C 92.341 354.750,94.631 354.927,96.034 355.132 C 99.632 355.657,115.028 356.674,118.190 356.595 C 120.288 356.543,119.863 356.464,116.117 356.212 C 107.525 355.634,100.516 355.099,96.890 354.746 C 91.239 354.194,85.101 353.966,86.899 354.374 M211.499 356.267 C 220.572 357.829,280.802 357.819,290.669 356.254 C 292.229 356.007,291.669 355.971,288.407 356.111 C 263.118 357.194,234.964 357.339,221.112 356.458 C 211.364 355.838,208.701 355.785,211.499 356.267 M124.599 357.007 C 125.844 357.177,129.059 357.335,131.745 357.358 C 134.431 357.380,138.418 357.565,140.605 357.769 C 145.019 358.180,155.657 358.890,160.603 359.103 L 163.808 359.242 161.169 358.908 C 158.421 358.561,151.598 358.028,141.942 357.406 C 134.046 356.897,121.733 356.614,124.599 357.007 M165.504 359.630 C 166.023 359.813,167.370 359.979,168.498 360.000 C 169.626 360.021,171.492 360.203,172.645 360.405 C 176.517 361.085,184.614 362.001,185.336 361.841 C 185.729 361.754,185.118 361.563,183.977 361.416 C 182.837 361.270,180.631 360.988,179.076 360.789 C 177.521 360.591,174.976 360.259,173.421 360.051 C 169.203 359.487,164.372 359.230,165.504 359.630 M186.993 362.270 C 187.512 362.452,188.570 362.618,189.344 362.639 C 190.119 362.660,191.476 362.840,192.360 363.040 C 194.710 363.571,202.454 364.578,203.770 364.524 C 205.111 364.469,203.446 364.149,198.115 363.438 C 196.249 363.188,193.874 362.836,192.837 362.654 C 189.919 362.141,185.873 361.875,186.993 362.270 M324.034 362.496 C 321.546 362.763,316.202 363.177,312.158 363.416 C 308.115 363.656,303.619 364.003,302.168 364.188 C 299.902 364.476,300.142 364.498,303.864 364.343 C 313.685 363.933,330.468 362.589,330.878 362.179 C 331.223 361.834,329.430 361.917,324.034 362.496 M205.187 364.785 C 207.308 366.906,269.774 367.303,293.997 365.350 C 296.346 365.161,298.368 364.906,298.490 364.784 C 298.805 364.468,296.291 364.549,292.554 364.974 C 277.695 366.665,228.563 366.754,212.064 365.121 C 205.821 364.503,204.858 364.456,205.187 364.785 " stroke="none" fill="#9aa4a6" fill-rule="evenodd"></path></g></svg>