<svg id="svg" version="1.1" xmlns="http://www.w3.org/2000/svg" xmlns:xlink="http://www.w3.org/1999/xlink" width="400" height="361.6871704745167" viewBox="0, 0, 400,361.6871704745167"><g id="svgg"><path id="path0" d="M313.884 5.954 C 304.434 8.859,293.679 21.557,289.286 34.998 C 288.848 36.338,288.386 37.549,288.260 37.689 C 288.054 37.919,265.715 37.310,265.436 37.066 C 265.155 36.822,268.336 30.623,269.656 28.843 C 272.399 25.143,272.654 24.948,274.013 25.516 C 275.827 26.274,277.746 26.138,279.206 25.147 C 279.905 24.673,281.109 24.114,281.881 23.906 C 286.848 22.569,285.971 11.850,280.733 9.865 C 278.177 8.897,274.364 9.880,271.682 12.199 C 270.767 12.990,269.883 13.338,268.030 13.638 C 260.093 14.923,253.075 23.452,251.027 34.304 L 250.487 37.163 244.312 37.407 C 240.916 37.541,233.471 38.044,227.768 38.525 C 218.912 39.271,213.860 39.450,193.146 39.752 C 179.807 39.946,168.137 40.193,167.213 40.300 L 165.534 40.494 165.766 38.964 C 166.312 35.378,171.945 22.971,174.661 19.373 L 175.293 18.536 175.959 19.873 C 178.469 24.907,185.576 22.442,185.117 16.696 C 184.352 7.109,176.962 4.063,169.585 10.293 C 168.818 10.941,167.455 11.971,166.556 12.582 C 159.768 17.196,153.130 28.776,151.461 38.916 L 151.043 41.452 142.921 41.552 C 138.453 41.607,134.759 41.639,134.711 41.623 C 133.775 41.315,139.733 25.638,142.095 22.192 L 143.147 20.658 144.948 20.876 C 145.938 20.996,147.426 21.189,148.254 21.305 C 152.762 21.940,155.117 17.463,152.654 12.939 C 150.665 9.285,146.194 8.257,141.301 10.328 C 140.044 10.859,138.057 11.507,136.884 11.766 C 128.787 13.559,123.099 21.754,118.232 38.642 L 117.233 42.107 113.362 42.692 C 104.662 44.005,95.058 46.645,87.645 49.761 C 76.678 54.371,74.843 54.949,67.135 56.225 C 58.598 57.638,55.332 58.582,47.627 61.866 C 44.534 63.184,40.026 65.048,37.610 66.008 C 29.114 69.383,27.433 70.386,26.490 72.644 C 25.006 76.195,26.743 78.935,31.341 80.301 C 35.597 81.565,37.962 80.545,38.845 77.065 L 39.259 75.434 43.795 73.634 C 46.289 72.643,50.149 71.024,52.373 70.035 C 57.543 67.735,61.211 66.683,67.325 65.746 C 75.686 64.466,79.600 63.323,88.230 59.647 C 96.534 56.110,104.746 53.577,111.775 52.385 C 113.032 52.172,114.495 51.912,115.026 51.806 L 115.993 51.614 116.008 58.408 C 116.034 69.619,116.454 71.478,119.282 72.883 C 120.964 73.719,122.630 73.434,124.219 72.039 C 125.091 71.274,125.757 71.001,126.760 71.000 C 129.344 70.998,131.459 68.842,131.459 66.209 C 131.459 65.687,131.943 63.457,132.536 61.252 C 133.681 56.988,133.673 55.808,132.490 54.538 C 131.939 53.947,131.845 53.509,132.025 52.381 L 132.252 50.967 139.324 50.964 C 143.214 50.963,147.440 50.863,148.715 50.743 L 151.034 50.524 151.265 53.469 C 151.392 55.089,151.678 57.856,151.901 59.617 C 152.259 62.450,152.238 62.915,151.724 63.649 C 150.213 65.806,152.111 71.281,154.241 70.910 C 155.159 70.751,159.899 69.428,163.785 68.247 C 166.332 67.473,166.601 66.639,165.763 62.117 C 165.339 59.832,165.194 57.527,165.270 54.306 L 165.378 49.736 169.069 49.478 C 171.098 49.337,183.752 49.066,197.188 48.877 C 217.104 48.597,223.013 48.401,229.174 47.815 C 233.330 47.420,239.823 46.995,243.602 46.870 L 250.472 46.644 250.919 54.951 C 251.165 59.521,251.277 63.403,251.169 63.578 C 250.457 64.729,252.918 73.125,254.204 73.934 C 256.112 75.135,260.457 74.763,260.457 73.399 C 260.457 73.255,261.277 72.350,262.279 71.389 C 264.397 69.359,264.212 71.237,263.789 56.094 L 263.525 46.635 275.079 46.880 C 281.433 47.014,286.776 47.268,286.950 47.442 C 287.256 47.748,287.017 49.716,285.434 59.930 C 285.039 62.478,284.482 64.704,284.027 65.554 C 281.737 69.825,287.300 76.353,291.372 74.174 C 291.919 73.881,292.116 74.073,292.727 75.493 C 294.447 79.491,298.793 80.524,301.171 77.500 C 302.558 75.737,302.243 74.017,299.506 68.414 C 296.058 61.357,295.214 56.507,296.380 50.439 L 296.852 47.979 304.226 48.083 C 321.797 48.331,332.849 50.152,348.682 55.407 C 363.017 60.165,370.450 65.989,375.126 76.130 L 375.923 77.856 375.923 103.339 C 375.923 128.167,375.703 138.507,375.012 146.164 C 374.826 148.226,374.579 155.923,374.463 163.269 C 374.199 179.943,374.484 185.674,376.796 210.193 C 378.915 232.663,378.416 245.889,375.008 257.593 C 372.941 264.694,366.771 281.468,364.288 286.739 C 363.584 288.233,362.881 290.009,362.724 290.685 C 362.568 291.362,361.233 295.395,359.758 299.649 C 356.446 309.196,354.074 316.911,352.191 324.253 C 351.398 327.346,350.354 331.092,349.871 332.576 L 348.992 335.275 345.937 336.847 C 337.519 341.177,329.842 342.709,310.369 343.943 C 305.439 344.255,298.084 344.820,294.025 345.199 C 262.524 348.136,221.475 347.343,192.267 343.233 C 167.948 339.812,157.096 338.762,134.271 337.620 C 128.374 337.325,120.228 336.916,116.169 336.711 C 109.368 336.367,102.156 335.844,85.062 334.456 C 81.485 334.166,73.260 333.609,66.784 333.219 C 39.126 331.553,35.264 331.029,29.772 328.203 C 21.881 324.143,19.466 317.951,16.719 294.728 C 16.628 293.954,16.068 289.605,15.475 285.062 C 13.657 271.129,13.310 249.381,14.427 219.332 C 15.520 189.912,15.834 182.382,16.177 177.329 C 18.019 150.157,22.496 106.060,23.528 104.921 C 24.895 103.413,24.956 102.891,24.956 92.770 C 24.956 86.427,25.099 82.382,25.353 81.534 C 26.799 76.708,22.070 72.391,18.033 74.853 C 15.948 76.124,15.858 76.481,15.107 86.505 C 14.305 97.215,13.657 103.938,11.251 126.538 C 7.030 166.170,6.608 172.667,4.894 224.429 C 4.197 245.502,4.620 274.694,5.749 283.268 C 11.033 323.433,12.818 328.806,22.981 335.133 C 30.629 339.894,35.669 340.746,66.784 342.538 C 71.907 342.833,81.002 343.469,86.995 343.951 C 105.479 345.437,111.529 345.840,123.726 346.395 C 152.796 347.719,164.354 348.764,189.807 352.367 C 212.669 355.604,213.939 355.696,238.664 355.945 C 261.134 356.170,281.568 355.690,292.267 354.684 C 296.327 354.302,302.258 353.816,305.448 353.603 C 332.040 351.829,340.035 350.380,349.561 345.605 C 356.765 341.995,357.540 340.785,360.857 327.978 C 364.294 314.704,368.758 301.288,374.845 285.940 C 387.769 253.353,389.509 240.414,385.811 204.394 C 383.660 183.440,383.176 164.304,384.375 147.627 C 385.766 128.288,385.660 78.168,384.219 73.910 C 380.337 62.438,369.814 53.005,354.932 47.656 C 338.861 41.880,325.888 39.447,307.301 38.723 C 303.391 38.570,300.100 38.354,299.988 38.242 C 299.709 37.963,302.047 31.752,303.764 28.209 C 305.228 25.189,309.941 19.714,312.970 17.515 C 314.674 16.278,314.830 16.279,315.105 17.531 C 315.883 21.074,321.702 21.894,323.876 18.768 C 325.955 15.778,323.094 8.188,319.112 6.128 C 318.079 5.594,315.352 5.503,313.884 5.954 " stroke="none" fill="#040404" fill-rule="evenodd"></path><path id="path1" d="M150.615 96.102 C 144.492 97.761,139.166 103.037,133.588 112.970 C 127.084 124.550,129.712 139.211,138.288 139.188 C 148.906 139.160,154.982 123.356,145.471 120.507 C 143.830 120.015,143.831 120.025,145.237 117.297 C 148.699 110.575,154.129 106.329,154.995 109.666 C 155.196 110.439,155.542 111.744,155.764 112.566 C 157.263 118.114,155.644 128.493,152.022 136.555 C 149.538 142.084,148.640 144.019,148.105 144.991 C 145.152 150.364,141.337 156.540,138.985 159.754 C 138.137 160.914,136.793 162.840,136.000 164.035 C 135.206 165.229,134.330 166.293,134.054 166.400 C 133.777 166.506,133.436 166.899,133.296 167.274 C 132.714 168.825,124.923 177.685,118.551 184.040 C 114.300 188.280,111.295 190.973,102.285 198.619 C 99.376 201.088,93.547 205.517,88.796 208.869 C 83.830 212.373,82.593 214.166,83.078 217.157 C 83.811 221.672,87.435 223.382,92.669 221.681 C 105.401 217.546,112.861 218.358,119.524 224.605 C 135.217 239.315,145.179 241.295,162.685 233.182 C 164.104 232.524,165.366 231.986,165.489 231.986 C 166.373 231.986,175.017 227.150,175.747 226.247 C 176.950 224.759,177.032 220.638,175.890 219.096 C 173.185 215.444,169.996 215.706,161.511 220.277 C 156.528 222.961,147.536 225.743,144.296 225.603 C 139.522 225.396,136.925 223.834,128.528 216.121 C 127.399 215.084,125.895 213.840,125.186 213.357 C 124.477 212.873,123.344 212.072,122.669 211.576 C 120.469 209.958,117.278 208.511,114.499 207.868 C 111.406 207.153,111.352 207.083,112.917 205.818 C 113.546 205.310,114.534 204.457,115.114 203.922 C 115.694 203.387,117.988 201.356,120.211 199.408 C 126.587 193.820,136.014 183.943,140.773 177.862 C 141.994 176.303,146.084 170.914,147.522 168.969 C 148.063 168.238,148.836 167.210,149.238 166.685 C 149.641 166.159,150.273 165.176,150.644 164.499 C 151.015 163.822,151.731 162.715,152.235 162.039 C 153.686 160.094,156.297 155.655,158.378 151.595 C 159.431 149.542,160.420 147.691,160.576 147.481 C 160.955 146.973,163.826 140.171,165.363 136.142 C 169.369 125.642,169.420 109.740,165.472 102.726 C 162.122 96.774,156.834 94.417,150.615 96.102 M277.504 97.519 C 274.796 98.081,271.043 99.271,268.366 100.418 C 267.206 100.914,265.308 101.682,264.148 102.123 C 261.799 103.015,258.118 104.560,255.185 105.882 C 254.121 106.361,252.372 107.109,251.297 107.544 C 247.704 108.997,244.587 111.371,243.409 113.552 C 242.830 114.626,242.019 115.970,241.608 116.540 C 239.995 118.776,239.362 121.031,237.608 130.783 C 235.762 141.043,234.784 145.053,232.286 152.600 C 228.261 164.757,233.418 170.173,244.640 165.575 C 248.629 163.940,259.305 163.407,263.895 164.613 C 269.389 166.057,275.472 170.972,278.341 176.287 C 278.755 177.053,279.242 177.917,279.425 178.207 C 279.874 178.922,280.689 180.895,281.239 182.601 C 281.489 183.374,281.825 184.190,281.986 184.413 C 283.114 185.973,283.065 198.901,281.923 200.952 C 281.731 201.299,281.178 202.721,280.695 204.113 C 277.163 214.293,268.931 223.866,259.930 228.262 C 254.800 230.767,247.768 232.392,241.738 232.465 L 237.826 232.513 237.547 231.190 C 236.250 225.054,230.796 223.536,226.414 228.091 C 214.248 240.736,235.640 249.806,259.041 241.925 C 262.459 240.774,269.482 237.360,270.826 236.196 C 271.213 235.862,272.162 235.192,272.935 234.709 C 276.932 232.212,285.058 223.078,287.739 218.070 C 295.059 204.393,296.862 194.059,293.957 182.425 C 291.613 173.035,285.363 162.958,279.402 158.956 C 278.904 158.622,277.373 157.595,276.000 156.675 C 273.624 155.082,269.374 153.248,265.554 152.167 C 263.201 151.501,248.902 151.460,247.122 152.114 C 245.351 152.765,245.277 152.382,246.426 148.523 C 247.698 144.249,248.716 139.342,249.391 134.226 C 250.311 127.246,251.190 124.211,252.602 123.134 C 253.275 122.621,254.124 121.614,254.491 120.896 C 255.229 119.448,256.990 118.284,260.277 117.069 C 261.435 116.642,262.542 116.166,262.737 116.012 C 262.933 115.859,263.726 115.533,264.499 115.288 C 265.272 115.043,266.666 114.461,267.595 113.996 C 269.990 112.795,274.408 111.196,278.910 109.899 C 284.727 108.223,286.467 106.727,286.467 103.402 C 286.467 98.621,283.038 96.370,277.504 97.519 " stroke="none" fill="#0fb4e3" fill-rule="evenodd"></path><path id="path2" d="M240.422 46.993 C 239.359 47.056,234.613 47.420,229.877 47.801 C 225.141 48.183,220.158 48.584,218.805 48.693 C 217.452 48.802,205.668 49.049,192.619 49.242 C 179.569 49.436,168.141 49.681,167.223 49.788 L 165.554 49.983 165.554 54.831 C 165.554 57.899,165.759 60.673,166.114 62.387 C 167.106 67.185,166.828 67.626,162.039 68.860 C 160.395 69.283,157.820 70.046,156.316 70.556 C 153.184 71.617,153.209 71.627,151.697 68.753 C 150.607 66.681,150.564 65.621,151.495 63.793 C 152.103 62.602,152.153 62.143,151.862 60.468 C 151.677 59.398,151.431 57.337,151.317 55.888 C 151.203 54.438,151.031 52.737,150.934 52.109 L 150.759 50.967 141.667 50.967 L 132.575 50.967 132.338 52.367 C 132.149 53.490,132.247 53.952,132.835 54.699 C 133.775 55.894,133.782 57.781,132.859 60.985 C 132.469 62.338,131.978 64.544,131.767 65.888 C 131.172 69.672,129.823 71.002,126.578 71.002 C 125.815 71.002,125.138 71.141,125.073 71.310 C 124.807 72.011,122.144 73.462,121.123 73.462 C 116.900 73.462,115.298 68.188,115.701 55.623 C 115.838 51.377,116.432 51.662,110.049 52.907 C 103.977 54.091,97.094 56.137,91.740 58.351 C 89.323 59.350,86.043 60.707,84.451 61.367 C 80.264 63.101,74.276 64.848,71.251 65.217 C 64.540 66.036,58.974 67.416,53.954 69.505 C 51.828 70.390,47.636 72.108,44.640 73.324 L 39.192 75.534 38.980 76.805 C 38.329 80.711,34.105 81.978,29.438 79.668 C 25.624 77.781,24.956 79.777,24.956 93.069 L 24.956 103.315 23.952 104.469 C 22.855 105.731,23.050 104.339,20.372 130.053 C 19.670 136.795,19.866 142.002,21.132 150.194 C 21.473 152.403,21.434 152.753,20.620 154.786 C 19.486 157.620,18.747 161.320,18.436 165.729 C 18.300 167.663,17.738 171.094,17.188 173.355 C 16.102 177.820,16.195 176.463,14.864 207.381 C 14.412 217.875,14.249 228.732,14.243 248.682 L 14.236 275.747 15.386 284.287 C 20.256 320.435,21.382 323.842,29.886 328.124 C 35.292 330.846,40.501 331.544,66.608 333.042 C 71.828 333.342,81.002 333.982,86.995 334.464 C 105.954 335.990,111.307 336.350,123.199 336.898 C 145.917 337.946,159.594 338.914,170.299 340.232 C 178.791 341.277,183.031 341.842,194.200 343.414 C 220.637 347.136,263.286 347.908,292.267 345.191 C 296.327 344.810,302.258 344.325,305.448 344.112 C 330.284 342.458,336.447 341.367,344.904 337.130 L 348.858 335.149 349.811 332.162 C 350.335 330.518,351.553 326.169,352.517 322.496 C 355.336 311.756,362.360 290.606,364.950 285.062 C 368.451 277.565,375.278 257.571,376.422 251.463 C 377.980 243.149,378.510 225.483,377.363 220.143 C 376.655 216.849,376.099 210.894,376.099 206.602 C 376.099 204.724,375.748 199.504,375.320 195.003 C 374.407 185.399,374.180 154.150,374.964 145.870 C 376.440 130.266,376.251 78.581,374.707 75.571 C 368.761 63.980,360.196 58.394,340.027 52.954 C 327.070 49.460,321.943 48.775,302.600 47.955 L 297.116 47.723 296.713 49.325 C 296.204 51.345,296.189 59.819,296.691 61.687 C 296.898 62.460,298.201 65.466,299.586 68.366 C 302.647 74.776,302.798 75.925,300.835 77.888 C 299.065 79.658,296.836 79.943,295.243 78.603 C 294.640 78.095,294.019 77.680,293.863 77.680 C 293.707 77.680,293.235 76.833,292.815 75.798 L 292.051 73.915 290.575 74.446 C 286.527 75.902,281.909 69.622,284.026 65.540 C 284.447 64.728,285.027 62.316,285.417 59.754 C 285.785 57.337,286.344 53.648,286.661 51.556 C 286.977 49.463,287.141 47.656,287.025 47.540 C 286.757 47.273,275.611 46.804,268.758 46.773 L 263.528 46.749 263.750 54.218 C 263.872 58.326,264.070 63.143,264.190 64.922 C 264.479 69.218,264.340 69.611,261.528 72.439 C 258.304 75.683,254.365 75.826,252.723 72.758 C 252.095 71.584,250.936 65.058,251.010 63.108 C 251.083 61.197,250.708 52.525,250.398 48.946 L 250.208 46.749 246.281 46.814 C 244.122 46.849,241.485 46.930,240.422 46.993 M159.051 96.167 C 162.048 97.162,165.176 100.759,166.571 104.814 C 168.250 109.692,169.383 118.742,168.785 122.496 C 167.495 130.598,165.951 136.018,163.278 141.828 C 162.566 143.374,161.740 145.351,161.443 146.221 C 161.145 147.091,160.781 147.882,160.635 147.979 C 160.488 148.076,159.455 149.974,158.339 152.197 C 157.222 154.420,155.884 156.872,155.365 157.645 C 153.452 160.492,151.666 163.278,151.535 163.620 C 151.460 163.814,150.890 164.605,150.267 165.378 C 149.644 166.151,149.034 167.100,148.912 167.487 C 148.790 167.873,148.332 168.586,147.895 169.070 C 147.458 169.555,146.309 171.032,145.343 172.354 C 144.376 173.676,142.953 175.502,142.179 176.412 C 141.406 177.322,140.220 178.757,139.543 179.601 C 138.866 180.445,138.155 181.308,137.961 181.520 C 137.768 181.732,137.001 182.616,136.257 183.484 C 134.276 185.792,127.237 193.244,126.014 194.325 C 125.436 194.837,123.933 196.229,122.675 197.419 C 120.696 199.291,118.107 201.604,113.221 205.864 L 112.030 206.902 114.627 207.688 C 117.559 208.576,122.141 210.682,123.199 211.628 C 123.585 211.974,124.560 212.702,125.365 213.246 C 126.170 213.790,128.430 215.736,130.388 217.570 C 132.346 219.404,134.228 221.065,134.570 221.261 C 134.913 221.457,135.737 222.033,136.402 222.543 C 137.066 223.052,138.005 223.582,138.489 223.721 C 138.972 223.860,139.897 224.278,140.545 224.650 C 142.011 225.491,145.239 225.840,147.100 225.358 C 149.380 224.768,155.065 222.842,156.675 222.115 C 157.494 221.744,158.259 221.441,158.374 221.441 C 158.489 221.441,160.884 220.317,163.696 218.944 C 170.928 215.411,174.620 215.683,176.620 219.897 C 177.814 222.413,176.424 227.601,174.517 227.744 C 174.323 227.758,173.257 228.317,172.147 228.987 C 171.037 229.656,169.060 230.627,167.753 231.145 C 166.447 231.663,164.982 232.357,164.499 232.688 C 163.273 233.526,157.932 235.407,153.954 236.400 C 152.118 236.859,149.882 237.477,148.986 237.773 C 146.916 238.459,142.070 238.483,140.522 237.815 C 139.887 237.542,138.260 237.040,136.907 236.702 C 132.697 235.647,129.412 233.682,124.325 229.174 C 123.343 228.304,122.240 227.355,121.873 227.065 C 121.507 226.775,120.545 225.869,119.736 225.053 C 118.541 223.846,114.561 221.090,114.013 221.090 C 113.938 221.090,113.204 220.774,112.383 220.388 C 109.678 219.116,102.512 218.845,99.824 219.911 C 99.258 220.136,92.649 221.913,89.889 222.582 C 83.582 224.112,80.001 213.315,85.921 210.618 C 87.099 210.081,90.062 207.893,96.134 203.077 C 97.680 201.851,99.547 200.480,100.282 200.032 C 101.016 199.584,101.865 198.840,102.167 198.379 C 102.470 197.917,102.897 197.538,103.116 197.536 C 103.335 197.534,104.543 196.573,105.800 195.401 C 107.056 194.230,108.271 193.164,108.498 193.033 C 110.952 191.620,124.642 177.757,129.837 171.425 C 130.439 170.691,131.265 169.742,131.672 169.316 C 132.079 168.890,132.676 168.027,132.999 167.399 C 133.322 166.771,133.741 166.257,133.930 166.257 C 134.120 166.257,134.976 165.189,135.831 163.884 C 136.687 162.579,137.957 160.721,138.652 159.754 C 139.348 158.787,140.321 157.364,140.815 156.591 C 141.309 155.817,142.046 154.716,142.452 154.143 C 144.073 151.856,148.394 143.930,150.029 140.246 C 150.415 139.376,151.309 137.404,152.015 135.864 C 155.599 128.043,156.878 117.878,155.105 111.305 C 154.197 107.940,154.319 108.060,152.654 108.909 C 149.652 110.441,143.064 119.461,144.694 119.808 C 152.083 121.382,151.795 134.208,144.288 137.860 C 135.337 142.216,127.829 135.772,129.664 125.308 C 130.273 121.837,131.427 116.984,131.744 116.563 C 131.907 116.346,132.327 115.378,132.676 114.411 C 137.274 101.696,149.740 93.073,159.051 96.167 M283.340 97.558 C 289.299 100.640,287.344 108.561,280.316 109.805 C 278.424 110.141,269.684 113.154,268.366 113.926 C 267.786 114.266,266.520 114.801,265.554 115.115 C 263.705 115.716,262.729 116.142,258.198 118.325 C 256.174 119.300,255.261 119.958,254.859 120.730 C 254.555 121.314,253.716 122.359,252.995 123.050 C 251.624 124.365,250.367 128.432,249.743 133.568 C 249.013 139.572,247.276 147.887,246.435 149.396 C 245.733 150.658,245.584 152.314,246.194 152.080 C 249.937 150.644,267.117 151.378,269.244 153.066 C 269.534 153.296,270.562 153.770,271.529 154.120 C 275.627 155.605,280.987 159.465,284.503 163.463 C 285.961 165.122,289.631 170.306,289.631 170.708 C 289.631 170.839,289.852 171.196,290.121 171.501 C 291.244 172.772,293.714 179.716,294.445 183.656 C 294.552 184.236,294.818 184.932,295.035 185.203 C 295.574 185.875,295.577 199.224,295.039 200.385 C 294.519 201.509,293.602 204.449,293.300 205.962 C 292.969 207.621,290.410 214.019,289.641 215.109 C 289.298 215.595,288.539 216.942,287.954 218.102 C 287.369 219.262,286.405 220.844,285.812 221.617 C 285.219 222.390,284.214 223.723,283.580 224.579 C 281.624 227.217,275.145 233.582,273.199 234.778 C 272.184 235.402,271.353 236.032,271.353 236.177 C 271.353 236.322,270.523 236.865,269.508 237.383 C 268.493 237.901,267.425 238.478,267.135 238.665 C 258.864 243.987,238.299 247.034,231.111 244.001 C 221.933 240.130,220.087 234.952,225.605 228.560 C 230.068 223.391,237.937 225.188,237.958 231.382 C 237.965 233.320,244.015 232.886,254.130 230.223 C 265.444 227.244,276.949 215.762,280.539 203.866 C 280.918 202.610,281.368 201.265,281.539 200.879 C 283.454 196.542,283.323 189.651,281.205 183.304 C 279.753 178.952,279.390 178.261,275.690 172.770 C 274.601 171.155,270.641 167.770,269.075 167.116 C 268.343 166.809,267.330 166.258,266.824 165.891 C 263.509 163.482,249.224 163.483,244.588 165.893 C 241.833 167.325,236.920 167.701,234.619 166.656 C 230.034 164.573,229.426 160.579,232.338 151.670 C 234.888 143.870,235.607 141.142,236.381 136.340 C 237.533 129.196,238.249 125.229,238.657 123.726 C 238.841 123.049,239.228 121.625,239.516 120.560 C 239.975 118.865,241.545 116.007,244.094 112.225 C 245.614 109.970,250.667 107.229,260.281 103.445 C 262.988 102.379,265.756 101.213,266.432 100.853 C 267.520 100.274,275.293 97.661,277.153 97.249 C 278.877 96.868,282.339 97.041,283.340 97.558 M81.474 272.274 C 83.128 273.344,83.288 275.958,81.787 277.357 C 80.880 278.202,74.081 280.353,71.265 280.686 C 70.154 280.817,69.244 280.958,69.244 280.999 C 69.244 281.376,71.261 285.883,72.076 287.327 C 80.508 302.267,74.442 315.242,58.187 317.036 C 51.777 317.744,49.209 316.609,49.209 313.067 C 49.209 308.752,53.549 306.097,56.129 308.833 C 57.684 310.482,59.730 310.390,63.972 308.480 C 68.785 306.313,70.052 300.164,67.059 293.497 C 66.669 292.627,65.639 290.334,64.772 288.401 C 62.362 283.034,61.963 282.120,61.761 281.511 C 61.605 281.043,60.725 280.917,56.472 280.758 C 47.298 280.415,45.199 278.526,48.986 274.019 C 50.247 272.518,52.700 272.070,53.954 273.110 C 55.408 274.317,71.444 273.723,76.098 272.290 C 79.016 271.392,80.106 271.389,81.474 272.274 M114.728 274.847 C 120.056 278.140,121.770 295.090,118.798 315.102 C 117.818 321.708,111.348 321.719,111.904 315.114 C 112.551 307.438,112.910 301.545,112.741 301.376 C 112.516 301.151,110.110 301.853,106.854 303.091 L 104.569 303.961 103.136 307.956 C 100.234 316.041,98.445 318.017,95.232 316.687 C 91.209 315.020,93.227 302.007,99.598 288.541 C 100.129 287.416,100.527 285.962,100.527 285.143 C 100.527 283.777,102.050 281.547,102.981 281.547 C 103.141 281.547,103.694 280.827,104.210 279.948 C 107.230 274.794,111.383 272.780,114.728 274.847 M241.172 276.131 C 243.514 277.322,244.968 282.419,245.882 292.645 L 246.105 295.132 247.944 294.979 C 253.117 294.550,253.505 300.064,248.435 301.960 L 246.302 302.758 246.475 309.346 C 246.628 315.197,246.732 316.097,247.401 317.381 C 249.683 321.759,244.366 325.389,241.563 321.366 C 240.329 319.595,240.010 317.997,239.689 311.982 C 239.315 304.976,239.671 305.669,236.892 306.536 C 235.638 306.928,233.914 307.201,233.040 307.148 L 231.459 307.051 231.256 311.610 C 230.910 319.386,229.618 321.902,226.187 321.481 C 223.161 321.110,222.173 314.905,223.914 307.206 C 224.437 304.892,224.169 294.394,223.510 291.375 C 222.609 287.250,225.089 285.005,228.582 286.786 L 229.895 287.456 230.413 286.216 C 230.698 285.534,230.931 284.833,230.931 284.658 C 230.931 283.793,233.519 279.372,234.971 277.757 C 237.210 275.267,238.703 274.876,241.172 276.131 M206.386 278.681 C 207.015 279.304,209.183 284.701,210.079 287.873 C 211.520 292.972,209.687 299.992,205.181 306.635 C 196.356 319.644,186.112 320.323,182.682 308.126 C 181.543 304.074,181.348 289.441,182.410 287.722 C 183.620 285.764,186.108 285.430,187.698 287.013 L 188.576 287.887 188.769 296.931 C 189.066 310.844,190.310 312.586,195.896 306.910 C 202.979 299.711,204.934 292.858,201.998 285.514 C 200.504 281.779,200.419 280.824,201.449 279.377 C 202.697 277.624,204.993 277.301,206.386 278.681 M303.985 281.544 C 304.708 282.266,305.390 283.668,306.168 286.025 C 307.579 290.305,310.159 295.629,311.379 296.779 C 312.606 297.936,315.641 299.597,315.641 299.111 C 315.641 298.900,316.803 296.641,318.222 294.091 C 320.546 289.915,321.301 288.191,322.243 284.907 C 323.508 280.501,329.861 282.295,329.245 286.885 C 329.059 288.267,324.371 298.259,322.992 300.211 C 321.770 301.941,311.424 322.668,311.424 323.386 C 311.424 325.276,310.086 326.889,308.517 326.892 C 307.699 326.894,306.203 326.995,305.192 327.116 C 301.637 327.543,302.099 325.704,309.041 311.808 L 312.106 305.671 310.179 304.593 C 307.005 302.818,301.933 296.762,301.933 294.748 C 301.933 293.972,299.278 287.979,298.525 287.056 C 295.794 283.706,300.946 278.504,303.985 281.544 M146.219 282.774 C 147.689 284.183,148.929 286.715,150.481 291.477 C 151.253 293.845,152.100 296.257,152.364 296.837 C 152.822 297.841,155.349 306.175,155.371 306.754 C 155.429 308.255,157.916 300.534,159.711 293.278 C 162.259 282.982,164.409 281.005,170.363 283.486 C 173.762 284.901,172.687 290.334,169.008 290.334 C 167.676 290.334,167.849 289.919,165.566 298.594 C 163.223 307.494,162.965 308.240,160.764 312.443 C 159.177 315.475,158.157 316.353,155.934 316.604 C 151.844 317.065,151.196 316.104,147.051 303.427 L 143.641 292.998 142.969 294.566 C 142.318 296.085,140.710 302.206,139.925 306.151 C 139.714 307.214,139.476 309.532,139.397 311.302 C 139.140 317.016,136.125 319.700,133.106 316.902 C 130.758 314.726,132.081 305.205,136.731 290.824 C 139.444 282.433,142.848 279.545,146.219 282.774 M280.232 282.879 C 285.128 285.045,286.878 293.197,283.118 296.318 C 282.729 296.641,282.953 297.152,284.332 299.084 C 287.257 303.184,288.147 305.789,288.474 311.209 C 288.666 314.379,288.772 314.786,289.685 315.825 C 291.917 318.367,289.676 321.968,285.860 321.968 C 283.195 321.968,281.899 320.163,281.897 316.450 C 281.893 306.935,279.368 301.592,274.736 301.297 L 272.507 301.155 272.301 307.959 C 271.987 318.329,270.672 320.886,266.637 318.971 C 264.916 318.154,264.914 318.135,264.820 305.975 C 264.717 292.533,264.589 289.666,264.046 288.687 C 262.756 286.360,264.956 283.272,267.537 283.789 C 268.219 283.925,268.890 283.794,269.474 283.412 C 271.925 281.806,277.214 281.544,280.232 282.879 M110.595 282.951 C 109.106 284.455,106.155 294.673,106.973 295.491 C 107.055 295.573,108.432 295.096,110.033 294.432 L 112.945 293.225 112.870 290.637 C 112.799 288.156,112.307 284.159,111.914 282.865 C 111.682 282.098,111.423 282.115,110.595 282.951 M235.212 293.585 C 234.051 297.113,233.253 300.055,233.440 300.123 C 234.364 300.459,239.350 297.943,239.202 297.215 C 239.121 296.814,238.956 294.982,238.837 293.146 C 238.340 285.484,237.861 285.542,235.212 293.585 M273.556 289.367 C 273.097 289.954,272.322 293.178,272.579 293.434 C 273.369 294.225,277.782 291.995,277.972 290.710 C 278.190 289.239,274.528 288.125,273.556 289.367 " stroke="none" fill="#fbf3eb" fill-rule="evenodd"></path><path id="path3" d="M76.098 272.290 C 71.444 273.723,55.408 274.317,53.954 273.110 C 52.700 272.070,50.247 272.518,48.986 274.019 C 45.199 278.526,47.298 280.415,56.472 280.758 C 60.725 280.917,61.605 281.043,61.761 281.511 C 61.963 282.120,62.362 283.034,64.772 288.401 C 65.639 290.334,66.669 292.627,67.059 293.497 C 70.052 300.164,68.785 306.313,63.972 308.480 C 59.730 310.390,57.684 310.482,56.129 308.833 C 53.549 306.097,49.209 308.752,49.209 313.067 C 49.209 316.609,51.777 317.744,58.187 317.036 C 64.947 316.290,68.436 314.709,72.493 310.553 C 76.756 306.187,76.560 295.272,72.076 287.327 C 71.261 285.883,69.244 281.376,69.244 280.999 C 69.244 280.958,70.154 280.817,71.265 280.686 C 76.874 280.023,82.324 277.634,82.760 275.648 C 83.495 272.300,80.678 270.880,76.098 272.290 M110.102 274.192 C 108.712 274.612,105.494 277.756,104.210 279.948 C 103.694 280.827,103.141 281.547,102.981 281.547 C 102.050 281.547,100.527 283.777,100.527 285.143 C 100.527 285.962,100.129 287.416,99.598 288.541 C 93.227 302.007,91.209 315.020,95.232 316.687 C 98.445 318.017,100.234 316.041,103.136 307.956 L 104.569 303.961 106.854 303.091 C 110.110 301.853,112.516 301.151,112.741 301.376 C 112.910 301.545,112.551 307.438,111.904 315.114 C 111.348 321.719,117.818 321.708,118.798 315.102 C 122.635 289.264,118.868 271.541,110.102 274.192 M237.728 275.609 C 235.829 276.152,230.931 282.674,230.931 284.658 C 230.931 284.833,230.698 285.534,230.413 286.216 L 229.895 287.456 228.582 286.786 C 225.089 285.005,222.609 287.250,223.510 291.375 C 224.169 294.394,224.437 304.892,223.914 307.206 C 222.173 314.905,223.161 321.110,226.187 321.481 C 229.618 321.902,230.910 319.386,231.256 311.610 L 231.459 307.051 233.040 307.148 C 233.914 307.201,235.638 306.928,236.892 306.536 C 239.671 305.669,239.315 304.976,239.689 311.982 C 240.010 317.997,240.329 319.595,241.563 321.366 C 244.366 325.389,249.683 321.759,247.401 317.381 C 246.732 316.097,246.628 315.197,246.475 309.346 L 246.302 302.758 248.435 301.960 C 253.505 300.064,253.117 294.550,247.944 294.979 L 246.105 295.132 245.882 292.645 C 244.662 278.998,242.400 274.271,237.728 275.609 M202.943 278.023 C 200.520 279.014,200.251 281.145,201.998 285.514 C 204.934 292.858,202.979 299.711,195.896 306.910 C 190.310 312.586,189.066 310.844,188.769 296.931 L 188.576 287.887 187.698 287.013 C 186.108 285.430,183.620 285.764,182.410 287.722 C 181.348 289.441,181.543 304.074,182.682 308.126 C 186.112 320.323,196.356 319.644,205.181 306.635 C 211.147 297.841,211.884 292.071,208.253 282.601 C 206.585 278.254,205.232 277.086,202.943 278.023 M299.649 281.595 C 297.496 283.209,297.072 285.273,298.525 287.056 C 299.278 287.979,301.933 293.972,301.933 294.748 C 301.933 296.762,307.005 302.818,310.179 304.593 L 312.106 305.671 309.041 311.808 C 302.099 325.704,301.637 327.543,305.192 327.116 C 306.203 326.995,307.699 326.894,308.517 326.892 C 310.086 326.889,311.424 325.276,311.424 323.386 C 311.424 322.668,321.770 301.941,322.992 300.211 C 324.371 298.259,329.059 288.267,329.245 286.885 C 329.861 282.295,323.508 280.501,322.243 284.907 C 321.301 288.191,320.546 289.915,318.222 294.091 C 316.803 296.641,315.641 298.900,315.641 299.111 C 315.641 299.597,312.606 297.936,311.379 296.779 C 310.159 295.629,307.579 290.305,306.168 286.025 C 304.379 280.601,302.593 279.387,299.649 281.595 M141.301 282.311 C 139.028 283.834,137.222 288.291,134.059 300.176 C 130.754 312.597,131.174 317.750,135.491 317.750 C 138.077 317.750,139.190 315.914,139.397 311.302 C 139.476 309.532,139.714 307.214,139.925 306.151 C 140.710 302.206,142.318 296.085,142.969 294.566 L 143.641 292.998 147.051 303.427 C 151.196 316.104,151.844 317.065,155.934 316.604 C 158.157 316.353,159.177 315.475,160.764 312.443 C 162.965 308.240,163.223 307.494,165.566 298.594 C 167.849 289.919,167.676 290.334,169.008 290.334 C 172.687 290.334,173.762 284.901,170.363 283.486 C 164.409 281.005,162.259 282.982,159.711 293.278 C 157.916 300.534,155.429 308.255,155.371 306.754 C 155.349 306.175,152.822 297.841,152.364 296.837 C 152.100 296.257,151.253 293.845,150.481 291.477 C 147.639 282.757,144.826 279.948,141.301 282.311 M272.003 282.363 C 271.104 282.618,269.966 283.090,269.474 283.412 C 268.890 283.794,268.219 283.925,267.537 283.789 C 264.956 283.272,262.756 286.360,264.046 288.687 C 264.589 289.666,264.717 292.533,264.820 305.975 C 264.914 318.135,264.916 318.154,266.637 318.971 C 270.672 320.886,271.987 318.329,272.301 307.959 L 272.507 301.155 274.736 301.297 C 279.368 301.592,281.893 306.935,281.897 316.450 C 281.899 320.163,283.195 321.968,285.860 321.968 C 289.676 321.968,291.917 318.367,289.685 315.825 C 288.772 314.786,288.666 314.379,288.474 311.209 C 288.147 305.789,287.257 303.184,284.332 299.084 C 282.953 297.152,282.729 296.641,283.118 296.318 C 285.836 294.062,285.637 287.580,282.757 284.578 C 280.656 282.388,275.596 281.346,272.003 282.363 M111.914 282.865 C 112.307 284.159,112.799 288.156,112.870 290.637 L 112.945 293.225 110.033 294.432 C 106.478 295.906,106.684 296.159,107.520 291.340 C 108.530 285.527,111.174 280.426,111.914 282.865 M238.277 288.489 C 238.466 289.214,238.718 291.309,238.837 293.146 C 238.956 294.982,239.121 296.814,239.202 297.215 C 239.350 297.943,234.364 300.459,233.440 300.123 C 233.040 299.978,237.182 287.170,237.629 287.170 C 237.797 287.170,238.089 287.764,238.277 288.489 M277.445 289.438 C 278.933 290.566,277.457 292.416,274.440 293.204 C 272.380 293.742,272.277 293.637,272.794 291.519 C 273.433 288.903,275.511 287.973,277.445 289.438 " stroke="none" fill="#fba508" fill-rule="evenodd"></path><path id="path4" d="M250.345 47.803 C 250.345 48.480,250.418 48.757,250.506 48.418 C 250.594 48.080,250.594 47.526,250.506 47.188 C 250.418 46.850,250.345 47.127,250.345 47.803 M276.362 46.991 C 276.700 47.079,277.254 47.079,277.592 46.991 C 277.931 46.903,277.654 46.830,276.977 46.830 C 276.301 46.830,276.024 46.903,276.362 46.991 M311.516 48.407 C 312.051 48.488,312.841 48.486,313.274 48.402 C 313.706 48.319,313.269 48.253,312.302 48.255 C 311.336 48.258,310.982 48.326,311.516 48.407 M317.135 48.748 C 317.474 48.837,318.027 48.837,318.366 48.748 C 318.704 48.660,318.427 48.588,317.750 48.588 C 317.074 48.588,316.797 48.660,317.135 48.748 M188.115 49.121 C 191.340 49.179,196.718 49.179,200.065 49.121 C 203.413 49.063,200.773 49.016,194.200 49.015 C 187.627 49.015,184.889 49.063,188.115 49.121 M171.968 49.461 C 172.500 49.541,173.370 49.541,173.902 49.461 C 174.433 49.380,173.998 49.314,172.935 49.314 C 171.872 49.314,171.437 49.380,171.968 49.461 M165.356 50.017 C 165.260 50.268,165.230 52.680,165.290 55.377 L 165.399 60.281 165.477 55.117 L 165.554 49.953 167.047 49.818 L 168.541 49.683 167.036 49.622 C 166.079 49.583,165.468 49.727,165.356 50.017 M149.275 50.871 C 150.287 50.963,150.796 51.191,150.904 51.601 C 151.016 52.026,151.072 51.970,151.102 51.406 C 151.139 50.683,150.999 50.620,149.473 50.677 L 147.803 50.738 149.275 50.871 M296.086 55.360 C 296.087 57.293,296.146 58.040,296.217 57.018 C 296.289 55.997,296.288 54.415,296.216 53.503 C 296.144 52.591,296.085 53.427,296.086 55.360 M115.781 57.293 C 115.781 60.097,115.836 61.243,115.902 59.842 C 115.969 58.440,115.969 56.147,115.902 54.745 C 115.836 53.344,115.781 54.490,115.781 57.293 M250.730 55.360 C 250.732 56.714,250.796 57.224,250.872 56.495 C 250.948 55.766,250.946 54.658,250.869 54.034 C 250.791 53.410,250.729 54.007,250.730 55.360 M151.224 55.185 C 151.224 55.861,151.296 56.138,151.385 55.800 C 151.473 55.461,151.473 54.908,151.385 54.569 C 151.296 54.231,151.224 54.508,151.224 55.185 M251.055 60.281 C 251.059 61.054,251.131 61.329,251.215 60.892 C 251.299 60.455,251.296 59.822,251.208 59.486 C 251.120 59.150,251.051 59.508,251.055 60.281 M263.716 60.457 C 263.716 61.327,263.785 61.683,263.868 61.248 C 263.952 60.813,263.952 60.101,263.868 59.666 C 263.785 59.231,263.716 59.587,263.716 60.457 M165.630 61.160 C 165.627 61.643,165.750 62.434,165.905 62.917 C 166.283 64.099,166.283 62.823,165.905 61.336 C 165.664 60.389,165.636 60.371,165.630 61.160 M264.068 64.323 C 264.068 65.193,264.136 65.549,264.220 65.114 C 264.304 64.679,264.304 63.967,264.220 63.533 C 264.136 63.098,264.068 63.453,264.068 64.323 M367.135 65.378 C 368.283 66.538,369.301 67.487,369.398 67.487 C 369.495 67.487,368.635 66.538,367.487 65.378 C 366.339 64.218,365.321 63.269,365.224 63.269 C 365.127 63.269,365.987 64.218,367.135 65.378 M166.297 64.916 C 166.275 65.531,166.099 66.450,165.906 66.957 C 165.690 67.524,165.685 67.799,165.893 67.670 C 166.323 67.404,166.724 65.296,166.506 64.446 C 166.407 64.062,166.321 64.253,166.297 64.916 M131.540 65.729 C 131.540 66.406,131.613 66.683,131.701 66.344 C 131.789 66.006,131.789 65.453,131.701 65.114 C 131.613 64.776,131.540 65.053,131.540 65.729 M150.872 66.081 C 150.872 66.757,150.945 67.034,151.033 66.696 C 151.122 66.358,151.122 65.804,151.033 65.466 C 150.945 65.127,150.872 65.404,150.872 66.081 M152.855 70.738 C 153.120 71.076,153.674 71.335,154.085 71.312 C 154.796 71.274,154.798 71.263,154.130 71.099 C 153.743 71.004,153.190 70.745,152.900 70.525 C 152.441 70.175,152.435 70.203,152.855 70.738 M252.383 71.949 C 252.377 72.180,252.728 72.741,253.163 73.196 C 253.598 73.651,253.779 73.779,253.564 73.479 C 253.350 73.180,252.998 72.619,252.784 72.232 C 252.569 71.845,252.389 71.718,252.383 71.949 M375.875 85.237 C 375.876 87.170,375.935 87.916,376.006 86.895 C 376.078 85.874,376.077 84.292,376.005 83.380 C 375.933 82.468,375.874 83.304,375.875 85.237 M153.866 95.503 C 154.301 95.587,155.013 95.587,155.448 95.503 C 155.883 95.419,155.527 95.351,154.657 95.351 C 153.787 95.351,153.431 95.419,153.866 95.503 M160.105 96.759 C 160.492 96.995,161.752 98.137,162.904 99.297 C 164.057 100.457,164.663 100.931,164.252 100.351 C 163.208 98.880,160.946 96.804,160.105 96.545 L 159.402 96.329 160.105 96.759 M147.364 97.023 C 146.929 97.198,146.573 97.425,146.573 97.528 C 146.573 97.869,147.132 97.722,147.824 97.199 C 148.601 96.611,148.493 96.569,147.364 97.023 M284.825 99.100 C 285.988 100.387,286.249 101.095,286.586 103.866 C 286.680 104.644,286.727 104.526,286.766 103.416 C 286.831 101.572,286.112 99.761,284.852 98.594 C 283.427 97.273,283.413 97.537,284.825 99.100 M273.111 98.418 C 272.642 98.721,272.642 98.759,273.111 98.759 C 273.401 98.759,273.875 98.606,274.165 98.418 C 274.634 98.115,274.634 98.078,274.165 98.078 C 273.875 98.078,273.401 98.231,273.111 98.418 M141.078 101.845 C 139.805 103.150,138.448 104.692,138.063 105.272 C 137.678 105.852,138.125 105.457,139.056 104.394 C 139.986 103.330,141.462 101.788,142.335 100.967 C 143.207 100.145,143.802 99.473,143.657 99.473 C 143.512 99.473,142.351 100.540,141.078 101.845 M266.533 100.779 C 263.976 102.096,264.449 102.177,267.173 100.888 C 268.409 100.303,269.183 99.827,268.893 99.829 C 268.603 99.832,267.541 100.259,266.533 100.779 M165.378 102.636 C 165.678 103.216,166.002 103.691,166.099 103.691 C 166.196 103.691,166.029 103.216,165.729 102.636 C 165.429 102.056,165.105 101.582,165.008 101.582 C 164.912 101.582,165.078 102.056,165.378 102.636 M260.105 103.515 C 259.622 103.791,259.385 104.017,259.578 104.017 C 259.772 104.017,260.325 103.791,260.808 103.515 C 261.292 103.239,261.529 103.013,261.336 103.013 C 261.142 103.013,260.589 103.239,260.105 103.515 M255.009 105.633 C 253.656 106.299,252.886 106.763,253.298 106.663 C 254.255 106.431,258.290 104.437,257.821 104.428 C 257.627 104.424,256.362 104.966,255.009 105.633 M285.686 106.174 C 285.361 106.741,285.220 107.206,285.373 107.206 C 285.662 107.206,286.576 105.440,286.386 105.250 C 286.327 105.190,286.012 105.606,285.686 106.174 M136.606 107.293 C 136.335 107.728,135.527 109.017,134.812 110.156 C 133.377 112.442,132.652 114.057,133.217 113.708 C 133.410 113.588,133.568 113.354,133.568 113.186 C 133.568 113.018,134.375 111.565,135.361 109.956 C 136.347 108.346,137.227 106.911,137.315 106.766 C 137.403 106.621,137.391 106.503,137.287 106.503 C 137.184 106.503,136.877 106.859,136.606 107.293 M283.656 108.260 C 283.172 108.638,282.950 108.951,283.162 108.955 C 283.373 108.960,283.833 108.647,284.183 108.260 C 284.984 107.374,284.788 107.374,283.656 108.260 M154.323 108.260 C 154.320 108.357,154.629 109.622,155.009 111.072 C 155.389 112.522,155.724 114.183,155.754 114.763 C 155.799 115.653,155.832 115.688,155.965 114.991 C 156.124 114.153,155.160 109.580,154.621 108.612 C 154.459 108.322,154.325 108.163,154.323 108.260 M280.316 109.496 L 278.910 109.976 280.316 109.776 C 281.800 109.565,283.287 108.969,282.250 109.001 C 281.960 109.010,281.090 109.233,280.316 109.496 M149.896 110.808 L 148.506 112.302 150.000 110.913 C 151.389 109.621,151.655 109.315,151.389 109.315 C 151.332 109.315,150.660 109.987,149.896 110.808 M275.044 111.078 C 274.271 111.458,274.023 111.671,274.494 111.552 C 275.812 111.218,277.569 110.397,276.977 110.392 C 276.687 110.390,275.817 110.698,275.044 111.078 M375.898 120.738 C 375.898 125.185,375.948 126.955,376.010 124.673 C 376.071 122.390,376.071 118.752,376.009 116.588 C 375.948 114.424,375.897 116.292,375.898 120.738 M267.487 114.060 C 266.617 114.526,266.030 114.914,266.183 114.923 C 266.556 114.944,269.244 113.563,269.244 113.350 C 269.244 113.117,269.259 113.111,267.487 114.060 M168.464 118.981 C 168.465 124.227,168.488 124.424,168.805 121.913 C 169.025 120.177,169.024 118.181,168.804 116.289 C 168.476 113.467,168.464 113.568,168.464 118.981 M131.501 117.135 C 131.054 118.349,130.674 120.058,130.902 119.831 C 131.174 119.558,132.134 116.344,131.943 116.344 C 131.860 116.344,131.662 116.700,131.501 117.135 M156.179 118.981 C 156.180 120.334,156.244 120.844,156.320 120.115 C 156.396 119.386,156.395 118.279,156.317 117.655 C 156.239 117.031,156.177 117.627,156.179 118.981 M256.503 118.812 C 254.228 120.241,254.378 120.479,256.678 119.091 C 258.890 117.757,258.902 117.749,258.494 117.757 C 258.317 117.761,257.421 118.236,256.503 118.812 M144.640 120.211 C 145.607 120.627,145.951 120.627,145.694 120.211 C 145.575 120.018,145.130 119.871,144.707 119.884 C 143.964 119.908,143.962 119.920,144.640 120.211 M252.639 123.116 C 251.387 124.199,249.824 128.634,249.948 130.756 C 249.965 131.046,250.362 129.701,250.831 127.768 C 251.595 124.619,251.820 124.135,252.995 123.124 C 253.716 122.503,254.227 121.991,254.130 121.987 C 254.033 121.982,253.363 122.491,252.639 123.116 M155.753 122.883 C 155.730 123.289,155.237 125.487,154.657 127.768 C 153.573 132.033,153.409 132.932,153.970 131.535 C 154.616 129.924,156.104 123.322,155.951 122.741 C 155.830 122.283,155.784 122.316,155.753 122.883 M129.815 123.954 C 129.386 126.011,129.512 130.845,130.016 131.641 C 130.276 132.051,130.387 132.108,130.287 131.777 C 129.813 130.218,129.690 127.171,130.018 125.152 C 130.421 122.677,130.269 121.779,129.815 123.954 M237.610 128.822 C 237.360 130.281,237.228 131.546,237.316 131.633 C 237.404 131.721,237.677 130.597,237.922 129.135 C 238.168 127.673,238.300 126.408,238.216 126.324 C 238.132 126.240,237.859 127.364,237.610 128.822 M249.642 132.513 C 249.642 133.190,249.715 133.467,249.803 133.128 C 249.891 132.790,249.891 132.236,249.803 131.898 C 249.715 131.560,249.642 131.837,249.642 132.513 M148.507 132.861 C 148.376 133.275,147.769 134.183,147.159 134.878 C 146.356 135.792,146.260 136.010,146.812 135.666 C 147.620 135.161,149.228 132.591,148.925 132.288 C 148.827 132.189,148.639 132.447,148.507 132.861 M152.605 134.461 C 152.017 135.754,152.129 136.030,152.766 134.855 C 153.063 134.306,153.241 133.791,153.160 133.711 C 153.080 133.630,152.830 133.968,152.605 134.461 M131.211 135.149 C 132.121 136.938,135.053 139.199,136.450 139.188 C 136.701 139.186,136.097 138.808,135.108 138.347 C 134.018 137.840,132.918 136.976,132.316 136.154 C 130.893 134.212,130.600 133.946,131.211 135.149 M249.291 135.325 C 249.291 136.002,249.363 136.279,249.451 135.940 C 249.540 135.602,249.540 135.048,249.451 134.710 C 249.363 134.372,249.291 134.649,249.291 135.325 M164.873 137.280 C 164.460 138.382,164.184 139.345,164.259 139.420 C 164.334 139.495,164.729 138.651,165.136 137.544 C 165.544 136.437,165.820 135.474,165.750 135.404 C 165.680 135.334,165.285 136.178,164.873 137.280 M151.463 136.987 C 151.263 137.515,150.713 138.714,150.242 139.652 C 149.770 140.591,149.387 141.543,149.390 141.769 C 149.392 141.995,149.882 141.161,150.478 139.916 C 151.783 137.190,152.239 136.028,152.004 136.028 C 151.907 136.028,151.664 136.460,151.463 136.987 M144.288 137.464 C 143.322 138.018,142.656 138.476,142.808 138.480 C 143.261 138.494,145.804 137.123,146.043 136.736 C 146.319 136.288,146.381 136.262,144.288 137.464 M137.698 139.440 C 138.133 139.523,138.844 139.523,139.279 139.440 C 139.714 139.356,139.359 139.287,138.489 139.287 C 137.619 139.287,137.263 139.356,137.698 139.440 M247.716 143.644 C 247.379 145.128,247.163 146.401,247.235 146.474 C 247.433 146.671,248.595 141.742,248.452 141.314 C 248.385 141.112,248.053 142.160,247.716 143.644 M147.222 145.987 C 145.104 149.562,143.683 152.197,143.873 152.197 C 143.971 152.197,144.639 151.129,145.356 149.824 C 146.074 148.519,147.136 146.694,147.717 145.769 C 148.297 144.843,148.712 144.026,148.639 143.953 C 148.566 143.879,147.928 144.795,147.222 145.987 M233.424 148.011 C 233.186 148.804,233.056 149.518,233.135 149.597 C 233.215 149.676,233.474 149.092,233.711 148.298 C 233.949 147.505,234.079 146.791,234.000 146.712 C 233.921 146.633,233.662 147.218,233.424 148.011 M246.466 148.375 C 246.264 149.172,246.228 149.686,246.386 149.517 C 246.714 149.167,247.241 146.924,246.995 146.924 C 246.907 146.924,246.669 147.577,246.466 148.375 M160.086 148.135 C 159.754 148.641,159.583 149.156,159.706 149.279 C 159.829 149.402,159.930 149.329,159.930 149.117 C 159.930 148.905,160.186 148.476,160.499 148.163 C 160.812 147.850,160.983 147.509,160.878 147.404 C 160.774 147.300,160.418 147.629,160.086 148.135 M254.921 151.398 C 255.646 151.474,256.832 151.474,257.557 151.398 C 258.282 151.323,257.689 151.261,256.239 151.261 C 254.789 151.261,254.196 151.323,254.921 151.398 M245.370 151.737 C 245.327 152.397,245.909 152.581,246.804 152.189 C 247.601 151.841,247.598 151.835,246.690 152.012 C 246.118 152.124,245.683 152.024,245.575 151.757 C 245.447 151.440,245.391 151.434,245.370 151.737 M266.824 152.501 C 267.909 152.858,269.017 153.283,269.284 153.444 C 269.686 153.686,269.693 153.641,269.324 153.185 C 269.078 152.882,268.425 152.543,267.871 152.432 C 265.157 151.889,264.998 151.899,266.824 152.501 M142.226 154.394 C 140.932 156.455,139.825 158.131,138.802 159.578 C 138.188 160.448,137.295 161.714,136.818 162.390 L 135.950 163.620 136.879 162.566 C 138.445 160.787,143.260 153.603,142.886 153.603 C 142.796 153.603,142.499 153.959,142.226 154.394 M157.118 153.829 C 157.118 154.017,156.564 155.091,155.887 156.215 C 155.210 157.339,154.867 158.084,155.125 157.870 C 155.802 157.308,157.577 153.945,157.328 153.696 C 157.213 153.580,157.118 153.640,157.118 153.829 M275.571 156.145 C 275.668 156.251,276.538 156.930,277.504 157.655 C 278.540 158.432,278.945 158.628,278.492 158.134 C 278.069 157.672,277.199 156.992,276.559 156.624 C 275.919 156.255,275.475 156.040,275.571 156.145 M282.802 162.029 C 283.745 163.001,284.568 163.796,284.631 163.796 C 284.927 163.796,282.060 160.635,281.606 160.461 C 281.321 160.352,281.859 161.057,282.802 162.029 M152.133 162.122 C 150.872 163.882,150.295 165.057,150.964 164.501 C 151.255 164.259,151.494 163.912,151.494 163.730 C 151.494 163.547,151.908 162.855,152.414 162.191 C 152.921 161.527,153.248 160.984,153.141 160.984 C 153.035 160.984,152.581 161.496,152.133 162.122 M254.580 164.055 C 255.504 164.128,256.928 164.127,257.743 164.053 C 258.559 163.979,257.803 163.920,256.063 163.921 C 254.323 163.922,253.656 163.982,254.580 164.055 M232.515 165.150 C 233.196 165.955,234.830 166.974,235.396 166.946 C 235.550 166.938,235.202 166.681,234.622 166.376 C 234.042 166.070,233.173 165.483,232.691 165.071 L 231.815 164.323 232.515 165.150 M285.413 164.717 C 285.413 164.902,285.899 165.601,286.493 166.270 L 287.573 167.487 286.595 166.081 C 286.057 165.308,285.571 164.609,285.515 164.528 C 285.459 164.448,285.413 164.533,285.413 164.717 M244.201 165.758 C 244.088 165.871,243.232 166.173,242.297 166.430 C 241.362 166.687,240.835 166.910,241.125 166.926 C 241.954 166.973,244.241 166.266,244.472 165.892 C 244.702 165.521,244.525 165.434,244.201 165.758 M267.438 166.260 C 267.894 166.645,268.408 166.960,268.580 166.960 C 269.181 166.960,268.884 166.655,267.750 166.110 L 266.608 165.561 267.438 166.260 M148.682 167.219 C 148.682 167.426,148.128 168.259,147.452 169.069 C 146.033 170.766,145.764 171.528,147.141 169.947 C 148.505 168.380,149.156 167.317,148.905 167.066 C 148.782 166.943,148.682 167.012,148.682 167.219 M236.292 167.202 C 236.630 167.290,237.184 167.290,237.522 167.202 C 237.860 167.113,237.583 167.041,236.907 167.041 C 236.230 167.041,235.953 167.113,236.292 167.202 M272.759 169.530 C 272.759 169.591,273.273 170.105,273.902 170.672 L 275.044 171.705 274.012 170.562 C 273.049 169.498,272.759 169.258,272.759 169.530 M289.278 170.650 C 289.729 171.424,290.459 172.768,290.900 173.638 C 291.899 175.607,291.995 175.293,291.025 173.228 C 290.065 171.182,289.451 170.146,288.910 169.654 C 288.662 169.429,288.828 169.877,289.278 170.650 M129.597 171.793 C 124.399 177.591,122.261 179.923,121.484 180.641 C 120.977 181.110,120.562 181.620,120.562 181.775 C 120.562 182.061,123.928 178.583,127.076 175.044 C 128.021 173.981,129.267 172.597,129.844 171.968 C 130.421 171.340,130.797 170.826,130.679 170.826 C 130.561 170.826,130.074 171.261,129.597 171.793 M276.058 173.286 C 276.382 173.770,276.975 174.679,277.375 175.308 C 277.774 175.936,278.169 176.450,278.251 176.450 C 278.535 176.450,277.339 174.515,276.404 173.462 C 275.727 172.699,275.631 172.651,276.058 173.286 M142.202 176.022 C 140.963 177.507,140.938 177.570,141.968 176.626 C 142.944 175.731,144.014 174.315,143.685 174.352 C 143.630 174.359,142.963 175.110,142.202 176.022 M291.765 175.571 C 291.765 175.764,291.991 176.318,292.267 176.801 C 292.543 177.285,292.769 177.522,292.769 177.329 C 292.769 177.135,292.543 176.582,292.267 176.098 C 291.991 175.615,291.765 175.378,291.765 175.571 M281.086 182.953 C 281.405 184.458,282.219 186.258,282.236 185.496 C 282.243 185.155,282.108 184.602,281.934 184.266 C 281.761 183.930,281.449 183.260,281.241 182.777 C 280.881 181.941,280.873 181.950,281.086 182.953 M294.063 182.953 C 294.352 184.245,294.554 184.526,294.546 183.626 C 294.544 183.256,294.381 182.715,294.184 182.425 C 293.924 182.040,293.891 182.182,294.063 182.953 M134.073 185.633 C 133.350 186.402,133.262 186.597,133.779 186.284 C 134.417 185.897,135.538 184.534,135.218 184.534 C 135.156 184.534,134.641 185.029,134.073 185.633 M294.731 185.764 C 294.880 186.344,295.121 189.192,295.268 192.091 L 295.533 197.364 295.432 191.444 C 295.362 187.308,295.200 185.402,294.896 185.117 C 294.553 184.797,294.518 184.934,294.731 185.764 M113.620 188.445 C 112.412 189.625,111.424 190.686,111.424 190.803 C 111.424 190.921,112.452 189.998,113.708 188.752 C 115.805 186.674,116.154 186.284,115.905 186.296 C 115.857 186.298,114.829 187.266,113.620 188.445 M129.682 190.422 L 128.471 191.740 129.789 190.529 C 131.016 189.401,131.269 189.104,131.000 189.104 C 130.942 189.104,130.349 189.697,129.682 190.422 M109.820 192.004 L 108.787 193.146 109.930 192.114 C 110.995 191.151,111.234 190.861,110.962 190.861 C 110.902 190.861,110.388 191.375,109.820 192.004 M108.084 193.242 C 107.891 193.386,107.339 193.977,106.857 194.555 C 106.072 195.498,106.117 195.482,107.297 194.395 C 108.487 193.298,108.780 192.960,108.524 192.976 C 108.475 192.978,108.278 193.098,108.084 193.242 M125.816 194.264 L 124.605 195.558 125.723 194.703 C 126.655 193.991,127.480 192.970,127.123 192.970 C 127.070 192.970,126.482 193.552,125.816 194.264 M120.716 199.003 C 119.685 200.113,119.685 200.113,120.635 199.442 C 121.159 199.072,121.668 198.572,121.767 198.330 C 122.039 197.663,121.843 197.789,120.716 199.003 M294.960 198.653 C 294.929 199.169,294.801 199.881,294.676 200.235 C 294.501 200.729,294.548 200.787,294.877 200.484 C 295.118 200.262,295.242 199.569,295.161 198.902 C 295.043 197.937,295.005 197.891,294.960 198.653 M281.926 199.842 C 281.911 200.238,281.760 200.713,281.592 200.896 C 281.424 201.080,281.191 201.705,281.074 202.285 C 280.871 203.298,280.877 203.305,281.247 202.460 C 281.458 201.977,281.788 201.241,281.981 200.826 C 282.174 200.410,282.246 199.856,282.142 199.595 C 282.028 199.308,281.943 199.405,281.926 199.842 M97.294 202.161 C 94.881 204.133,93.445 205.472,94.728 204.556 C 95.308 204.141,98.352 201.705,99.631 200.632 C 99.815 200.478,99.862 200.351,99.737 200.351 C 99.612 200.351,98.512 201.166,97.294 202.161 M116.696 202.522 C 115.349 203.768,115.189 203.989,116.169 203.249 C 117.473 202.263,119.098 200.683,118.772 200.718 C 118.693 200.727,117.759 201.538,116.696 202.522 M294.241 201.465 C 294.219 201.788,294.109 202.341,293.998 202.695 C 293.806 203.306,293.817 203.307,294.197 202.713 C 294.418 202.369,294.528 201.815,294.441 201.483 C 294.298 200.939,294.278 200.937,294.241 201.465 M112.479 206.150 C 111.541 207.149,111.563 207.205,113.005 207.493 L 114.060 207.704 113.099 207.264 L 112.138 206.823 112.913 206.048 C 113.340 205.621,113.602 205.272,113.496 205.272 C 113.390 205.272,112.933 205.667,112.479 206.150 M91.542 206.766 L 90.510 207.909 91.652 206.876 C 92.717 205.914,92.956 205.624,92.684 205.624 C 92.624 205.624,92.110 206.138,91.542 206.766 M292.148 208.627 C 291.560 209.919,291.672 210.195,292.309 209.020 C 292.606 208.471,292.784 207.956,292.703 207.876 C 292.623 207.796,292.373 208.133,292.148 208.627 M121.793 210.771 C 123.582 212.359,124.242 212.822,123.552 212.006 C 123.168 211.553,122.537 211.020,122.148 210.821 C 121.759 210.622,121.599 210.599,121.793 210.771 M276.707 211.863 C 275.797 213.177,275.501 213.708,275.679 213.708 C 275.762 213.708,276.248 213.076,276.760 212.302 C 277.800 210.731,277.754 210.351,276.707 211.863 M290.059 213.641 C 289.434 214.935,289.176 215.677,289.487 215.290 C 290.094 214.535,291.475 211.569,291.301 211.395 C 291.243 211.337,290.684 212.348,290.059 213.641 M127.592 215.290 C 128.248 215.967,128.864 216.520,128.960 216.520 C 129.057 216.520,128.600 215.967,127.944 215.290 C 127.288 214.613,126.672 214.060,126.576 214.060 C 126.479 214.060,126.936 214.613,127.592 215.290 M273.430 216.784 C 271.924 218.463,271.239 219.332,271.419 219.332 C 271.516 219.332,272.262 218.541,273.077 217.575 C 274.644 215.716,274.899 215.146,273.430 216.784 M103.427 219.223 C 103.765 219.311,104.319 219.311,104.657 219.223 C 104.996 219.135,104.719 219.062,104.042 219.062 C 103.366 219.062,103.089 219.135,103.427 219.223 M107.122 219.229 C 107.559 219.313,108.192 219.310,108.528 219.222 C 108.864 219.134,108.506 219.065,107.733 219.069 C 106.960 219.073,106.685 219.145,107.122 219.229 M161.863 219.850 C 161.090 220.327,160.567 220.721,160.700 220.727 C 161.005 220.741,163.445 219.314,163.445 219.122 C 163.445 218.893,163.336 218.943,161.863 219.850 M285.930 220.956 C 285.162 222.043,283.680 223.957,282.637 225.210 C 281.593 226.463,281.079 227.275,281.494 227.016 C 281.910 226.757,282.250 226.461,282.250 226.359 C 282.250 226.257,282.843 225.432,283.568 224.527 C 285.809 221.726,287.728 218.981,287.444 218.981 C 287.379 218.981,286.697 219.870,285.930 220.956 M176.486 220.340 C 177.086 222.060,176.669 225.189,175.690 226.317 C 174.921 227.202,174.932 227.200,175.933 226.266 C 177.105 225.172,177.514 220.610,176.528 219.622 C 176.164 219.257,176.156 219.393,176.486 220.340 M83.996 220.291 C 84.204 220.721,84.727 221.244,85.157 221.452 C 85.885 221.805,85.895 221.795,85.297 221.313 C 84.943 221.028,84.420 220.505,84.135 220.151 C 83.653 219.553,83.643 219.563,83.996 220.291 M97.891 220.224 C 96.499 220.706,96.497 220.709,97.715 220.508 C 98.392 220.397,99.183 220.171,99.473 220.005 C 100.247 219.564,99.499 219.668,97.891 220.224 M111.424 219.850 C 111.424 220.128,113.972 221.119,114.172 220.918 C 114.272 220.819,114.267 220.738,114.161 220.738 C 114.056 220.738,113.397 220.499,112.697 220.206 C 111.996 219.914,111.424 219.753,111.424 219.850 M115.114 221.623 C 115.501 221.938,116.134 222.351,116.520 222.541 L 117.223 222.886 116.520 222.313 C 116.134 221.999,115.501 221.586,115.114 221.396 L 114.411 221.051 115.114 221.623 M86.819 222.293 C 87.302 222.584,88.251 222.810,88.928 222.794 L 90.158 222.766 88.928 222.516 C 88.251 222.379,87.302 222.153,86.819 222.015 L 85.940 221.763 86.819 222.293 M138.313 223.836 C 138.506 224.030,139.297 224.448,140.070 224.766 C 140.844 225.084,141.318 225.186,141.125 224.993 C 140.931 224.799,140.141 224.381,139.367 224.063 C 138.594 223.745,138.120 223.643,138.313 223.836 M14.148 225.132 C 14.152 225.905,14.224 226.180,14.308 225.743 C 14.392 225.306,14.389 224.673,14.301 224.337 C 14.213 224.001,14.144 224.359,14.148 225.132 M119.480 224.873 C 119.913 225.505,120.768 226.258,121.381 226.548 C 121.994 226.838,122.183 226.875,121.800 226.631 C 121.418 226.386,120.562 225.633,119.899 224.956 L 118.694 223.726 119.480 224.873 M149.974 224.412 C 149.235 224.675,148.523 225.010,148.392 225.155 C 148.262 225.301,148.471 225.298,148.858 225.150 C 149.244 225.001,150.075 224.731,150.703 224.550 C 151.331 224.368,151.845 224.148,151.845 224.061 C 151.845 223.814,151.432 223.892,149.974 224.412 M377.956 226.889 C 377.959 227.856,378.027 228.210,378.108 227.675 C 378.189 227.141,378.187 226.350,378.103 225.918 C 378.020 225.486,377.954 225.923,377.956 226.889 M236.916 229.262 C 237.289 230.083,237.598 231.102,237.602 231.526 C 237.606 231.949,237.746 232.380,237.912 232.483 C 238.369 232.765,237.812 230.212,237.133 228.910 C 236.272 227.259,236.119 227.506,236.916 229.262 M278.198 230.316 L 275.747 232.865 278.295 230.414 C 280.662 228.137,281.004 227.768,280.746 227.768 C 280.693 227.768,279.546 228.915,278.198 230.316 M123.726 228.581 C 123.726 228.641,124.240 229.156,124.868 229.723 L 126.011 230.756 124.978 229.613 C 124.016 228.549,123.726 228.309,123.726 228.581 M170.650 229.525 C 169.684 230.099,169.023 230.571,169.182 230.574 C 169.526 230.581,172.583 228.819,172.583 228.613 C 172.583 228.388,172.506 228.425,170.650 229.525 M224.886 229.438 C 223.784 230.616,222.836 232.431,222.877 233.287 C 222.897 233.707,222.999 233.618,223.180 233.020 C 223.602 231.629,224.255 230.494,225.241 229.438 C 225.736 228.906,226.063 228.471,225.966 228.471 C 225.870 228.471,225.384 228.906,224.886 229.438 M252.373 230.630 C 251.889 230.826,250.318 231.215,248.880 231.493 C 247.443 231.771,246.191 232.075,246.098 232.168 C 245.851 232.415,246.073 232.389,248.915 231.833 C 251.496 231.329,254.771 230.280,253.779 230.276 C 253.489 230.274,252.856 230.434,252.373 230.630 M377.965 232.513 C 377.967 233.673,378.032 234.105,378.111 233.473 C 378.189 232.842,378.187 231.893,378.107 231.365 C 378.027 230.836,377.963 231.353,377.965 232.513 M127.944 232.146 C 128.427 232.675,129.297 233.350,129.877 233.646 C 131.173 234.308,131.048 234.173,128.822 232.503 C 127.437 231.464,127.251 231.388,127.944 232.146 M163.342 232.849 C 161.223 233.865,160.915 234.158,162.468 233.682 C 163.131 233.478,164.057 233.017,164.526 232.657 C 165.611 231.822,165.419 231.853,163.342 232.849 M241.916 232.580 C 242.254 232.668,242.808 232.668,243.146 232.580 C 243.484 232.491,243.207 232.419,242.531 232.419 C 241.854 232.419,241.577 232.491,241.916 232.580 M131.107 234.253 C 131.107 234.349,131.582 234.674,132.162 234.974 C 132.742 235.274,133.216 235.440,133.216 235.343 C 133.216 235.247,132.742 234.922,132.162 234.622 C 131.582 234.322,131.107 234.156,131.107 234.253 M222.577 235.149 C 222.577 235.826,222.649 236.103,222.738 235.764 C 222.826 235.426,222.826 234.873,222.738 234.534 C 222.649 234.196,222.577 234.473,222.577 235.149 M140.598 237.749 C 141.812 238.494,147.119 238.509,148.729 237.771 L 149.912 237.230 148.682 237.469 C 146.901 237.815,141.246 237.834,140.422 237.497 C 140.035 237.339,140.114 237.452,140.598 237.749 M224.605 239.829 C 224.605 239.889,225.119 240.403,225.747 240.971 L 226.889 242.004 225.857 240.861 C 224.895 239.796,224.605 239.557,224.605 239.829 M263.357 240.081 C 262.180 240.554,262.400 240.795,263.620 240.369 C 264.200 240.167,264.675 239.938,264.675 239.860 C 264.675 239.652,264.247 239.723,263.357 240.081 M260.633 241.344 L 259.578 241.858 260.633 241.642 C 261.213 241.524,261.837 241.280,262.021 241.100 C 262.505 240.627,261.880 240.737,260.633 241.344 M231.055 243.937 C 234.454 245.634,246.484 245.648,251.845 243.961 C 254.586 243.099,254.263 243.087,250.232 243.902 C 243.802 245.202,234.802 245.135,231.518 243.763 C 229.734 243.018,229.437 243.130,231.055 243.937 M13.862 255.888 C 13.862 261.204,13.911 263.379,13.971 260.721 C 14.031 258.062,14.031 253.713,13.971 251.054 C 13.911 248.396,13.862 250.571,13.862 255.888 M48.946 332.052 C 49.284 332.141,49.837 332.141,50.176 332.052 C 50.514 331.964,50.237 331.892,49.561 331.892 C 48.884 331.892,48.607 331.964,48.946 332.052 M53.515 332.404 C 53.853 332.492,54.407 332.492,54.745 332.404 C 55.083 332.316,54.807 332.243,54.130 332.243 C 53.453 332.243,53.177 332.316,53.515 332.404 M58.616 332.762 C 59.053 332.846,59.686 332.843,60.022 332.755 C 60.358 332.667,60.000 332.598,59.227 332.602 C 58.453 332.606,58.178 332.678,58.616 332.762 M64.236 333.113 C 64.670 333.197,65.382 333.197,65.817 333.113 C 66.252 333.029,65.896 332.960,65.026 332.960 C 64.156 332.960,63.801 333.029,64.236 333.113 M70.562 333.464 C 70.997 333.548,71.709 333.548,72.144 333.464 C 72.579 333.380,72.223 333.312,71.353 333.312 C 70.483 333.312,70.127 333.380,70.562 333.464 M76.190 333.816 C 76.628 333.900,77.260 333.897,77.596 333.809 C 77.932 333.721,77.575 333.652,76.801 333.656 C 76.028 333.660,75.753 333.732,76.190 333.816 M80.931 334.161 C 81.270 334.250,81.823 334.250,82.162 334.161 C 82.500 334.073,82.223 334.001,81.547 334.001 C 80.870 334.001,80.593 334.073,80.931 334.161 M85.501 334.513 C 85.839 334.601,86.393 334.601,86.731 334.513 C 87.069 334.425,86.793 334.352,86.116 334.352 C 85.439 334.352,85.163 334.425,85.501 334.513 M93.937 335.216 C 94.275 335.304,94.829 335.304,95.167 335.216 C 95.505 335.128,95.228 335.055,94.552 335.055 C 93.875 335.055,93.598 335.128,93.937 335.216 M98.155 335.567 C 98.493 335.656,99.047 335.656,99.385 335.567 C 99.723 335.479,99.446 335.407,98.770 335.407 C 98.093 335.407,97.816 335.479,98.155 335.567 M102.724 335.919 C 103.062 336.007,103.616 336.007,103.954 335.919 C 104.293 335.831,104.016 335.758,103.339 335.758 C 102.663 335.758,102.386 335.831,102.724 335.919 M107.825 336.277 C 108.262 336.361,108.895 336.358,109.231 336.270 C 109.567 336.182,109.209 336.113,108.436 336.117 C 107.663 336.121,107.388 336.193,107.825 336.277 M113.445 336.628 C 113.880 336.711,114.591 336.711,115.026 336.628 C 115.461 336.544,115.105 336.475,114.236 336.475 C 113.366 336.475,113.010 336.544,113.445 336.628 M120.299 336.983 C 120.830 337.063,121.700 337.063,122.232 336.983 C 122.764 336.902,122.329 336.836,121.265 336.836 C 120.202 336.836,119.767 336.902,120.299 336.983 M128.383 337.334 C 128.915 337.415,129.785 337.415,130.316 337.334 C 130.848 337.254,130.413 337.188,129.350 337.188 C 128.286 337.188,127.851 337.254,128.383 337.334 M135.418 337.686 C 135.952 337.767,136.743 337.765,137.175 337.682 C 137.608 337.598,137.170 337.532,136.204 337.535 C 135.237 337.537,134.884 337.606,135.418 337.686 M141.916 338.034 C 142.351 338.117,143.062 338.117,143.497 338.034 C 143.932 337.950,143.576 337.881,142.707 337.881 C 141.837 337.881,141.481 337.950,141.916 338.034 M147.544 338.386 C 147.981 338.470,148.614 338.467,148.950 338.379 C 149.286 338.291,148.928 338.222,148.155 338.226 C 147.381 338.230,147.106 338.302,147.544 338.386 M152.465 338.737 C 152.902 338.821,153.534 338.818,153.871 338.730 C 154.207 338.642,153.849 338.573,153.076 338.577 C 152.302 338.581,152.027 338.653,152.465 338.737 M318.893 343.300 C 319.231 343.389,319.785 343.389,320.123 343.300 C 320.461 343.212,320.185 343.140,319.508 343.140 C 318.831 343.140,318.554 343.212,318.893 343.300 M314.152 343.658 C 314.589 343.742,315.222 343.739,315.558 343.651 C 315.894 343.563,315.536 343.494,314.763 343.498 C 313.989 343.502,313.714 343.574,314.152 343.658 M308.172 344.009 C 308.607 344.093,309.319 344.093,309.754 344.009 C 310.189 343.925,309.833 343.857,308.963 343.857 C 308.093 343.857,307.737 343.925,308.172 344.009 M303.076 344.355 C 303.414 344.443,303.967 344.443,304.306 344.355 C 304.644 344.266,304.367 344.194,303.691 344.194 C 303.014 344.194,302.737 344.266,303.076 344.355 M298.506 344.706 C 298.844 344.795,299.398 344.795,299.736 344.706 C 300.075 344.618,299.798 344.546,299.121 344.546 C 298.445 344.546,298.168 344.618,298.506 344.706 M281.459 346.118 C 281.894 346.202,282.605 346.202,283.040 346.118 C 283.475 346.034,283.120 345.966,282.250 345.966 C 281.380 345.966,281.024 346.034,281.459 346.118 M222.408 346.476 C 223.036 346.554,224.064 346.554,224.692 346.476 C 225.321 346.398,224.807 346.334,223.550 346.334 C 222.293 346.334,221.779 346.398,222.408 346.476 M267.575 346.477 C 268.300 346.553,269.486 346.553,270.211 346.477 C 270.936 346.402,270.343 346.340,268.893 346.340 C 267.443 346.340,266.850 346.402,267.575 346.477 M235.237 346.834 C 236.736 346.900,239.187 346.900,240.685 346.834 C 242.184 346.768,240.958 346.714,237.961 346.714 C 234.965 346.714,233.739 346.768,235.237 346.834 M255.800 346.833 C 257.008 346.902,258.985 346.902,260.193 346.833 C 261.402 346.765,260.413 346.708,257.996 346.708 C 255.580 346.708,254.591 346.765,255.800 346.833 " stroke="none" fill="#98c6cd" fill-rule="evenodd"></path></g></svg>